<svg width="11" height="14" viewBox="0 0 11 14" fill="none" xmlns="http://www.w3.org/2000/svg">
<g filter="url(#filter0_d)">
<path d="M8.53138 1V1.5H9.03138V1H8.53138ZM7.53138 1H7.03138V1.5H7.53138V1ZM7.53138 1L7.53137 0.500004L7.03138 0.500009V1H7.53138ZM7.53138 9.74694L7.11535 10.0243L8.03138 11.3983V9.74694H7.53138ZM6.83207 8.69798L6.41604 8.97533L6.41604 8.97533L6.83207 8.69798ZM6.55472 8.28195L6.13869 8.5593L6.13869 8.5593L6.55472 8.28195ZM5.86134 8.14327L6.13869 8.5593L6.13869 8.5593L5.86134 8.14327ZM5.02929 8.69798L5.30664 9.114L5.30664 9.114L5.02929 8.69798ZM4.81635 9.01594L4.32606 8.91788L4.32606 8.91788L4.81635 9.01594ZM4.89062 9.39135L4.47459 9.6687L4.47459 9.6687L4.89062 9.39135ZM5.16797 9.80737L5.58399 9.53002L5.58399 9.53002L5.16797 9.80737ZM6.84301 12.3199L7.33794 12.391L7.36511 12.2017L7.25903 12.0426L6.84301 12.3199ZM7.06065 12.8074L7.338 12.3913L7.338 12.3913L7.06065 12.8074ZM7.25382 12.9362L7.66985 12.6588L7.61438 12.5756L7.53117 12.5201L7.25382 12.9362ZM7.44532 13.2234L7.86134 12.9461L7.86134 12.946L7.44532 13.2234ZM8.0157 13.4218L8.17027 12.9463L8.0157 12.896L7.86113 12.9463L8.0157 13.4218ZM8.58608 13.2234L8.17005 12.9461L8.17005 12.9461L8.58608 13.2234ZM8.77757 12.9362L8.50022 12.5201L8.41702 12.5756L8.36155 12.6588L8.77757 12.9362ZM8.97074 12.8074L8.69339 12.3913L8.69339 12.3914L8.97074 12.8074ZM9.18838 12.3199L8.77236 12.0426L8.66629 12.2017L8.69346 12.391L9.18838 12.3199ZM10.8634 9.80738L10.4474 9.53003L10.4474 9.53003L10.8634 9.80738ZM11.1408 9.39135L11.5568 9.6687L11.5568 9.6687L11.1408 9.39135ZM11.215 9.01594L10.7248 9.114L10.7248 9.114L11.215 9.01594ZM11.0021 8.69798L10.7248 9.114L10.7248 9.114L11.0021 8.69798ZM10.1701 8.14327L9.8927 8.5593L9.8927 8.5593L10.1701 8.14327ZM9.47668 8.28195L9.06065 8.0046L9.06065 8.0046L9.47668 8.28195ZM9.19933 8.69798L9.61535 8.97533L9.61535 8.97532L9.19933 8.69798ZM8.53138 9.6999H8.03138V11.3513L8.9474 9.97725L8.53138 9.6999ZM8.53138 1H9.03138V0.500009L8.53138 0.500004L8.53138 1ZM7.90275 12.1671L7.41477 12.2761L7.4568 12.4643L7.61438 12.5756L7.90275 12.1671ZM7.8308 11.9988L8.24682 11.7215L8.24682 11.7215L7.8308 11.9988ZM8.0157 12.2774L7.61437 12.5756L8.0157 13.1157L8.41702 12.5756L8.0157 12.2774ZM8.12864 12.1671L8.41702 12.5756L8.5746 12.4643L8.61663 12.2761L8.12864 12.1671ZM8.2006 11.9988L7.78457 11.7215L7.78457 11.7215L8.2006 11.9988ZM8.03138 1H9.03138C9.03138 0.447715 8.58366 0 8.03138 0V1ZM8.03138 1H8.03138V0C7.47909 0 7.03138 0.447715 7.03138 1H8.03138ZM8.03138 0.5H7.53138V1.5H8.03138V0.5ZM7.53138 1.5L8.03138 1.5L8.03137 0.5L7.53137 0.500004L7.53138 1.5ZM8.03138 1.00002V1H7.03138V1.00002H8.03138ZM8.03138 1.00004V1.00002H7.03138V1.00004H8.03138ZM8.03138 1.00007V1.00004H7.03138V1.00007H8.03138ZM8.03138 1.00011V1.00007H7.03138V1.00011H8.03138ZM8.03138 1.00016V1.00011H7.03138V1.00016H8.03138ZM8.03138 1.00022V1.00016H7.03138V1.00022H8.03138ZM8.03138 1.00028V1.00022H7.03138V1.00028H8.03138ZM8.03138 1.00036V1.00028H7.03138V1.00036H8.03138ZM8.03138 1.00045V1.00036H7.03138V1.00045H8.03138ZM8.03138 1.00054V1.00045H7.03138V1.00054H8.03138ZM8.03138 1.00065V1.00054H7.03138V1.00065H8.03138ZM8.03138 1.00077V1.00065H7.03138V1.00077H8.03138ZM8.03138 1.00089V1.00077H7.03138V1.00089H8.03138ZM8.03138 1.00103V1.00089H7.03138V1.00103H8.03138ZM8.03138 1.00118V1.00103H7.03138V1.00118H8.03138ZM8.03138 1.00134V1.00118H7.03138V1.00134H8.03138ZM8.03138 1.00151V1.00134H7.03138V1.00151H8.03138ZM8.03138 1.00169V1.00151H7.03138V1.00169H8.03138ZM8.03138 1.00188V1.00169H7.03138V1.00188H8.03138ZM8.03138 1.00208V1.00188H7.03138V1.00208H8.03138ZM8.03138 1.00229V1.00208H7.03138V1.00229H8.03138ZM8.03138 1.00252V1.00229H7.03138V1.00252H8.03138ZM8.03138 1.00275V1.00252H7.03138V1.00275H8.03138ZM8.03138 1.003V1.00275H7.03138V1.003H8.03138ZM8.03138 1.00326V1.003H7.03138V1.00326H8.03138ZM8.03138 1.00353V1.00326H7.03138V1.00353H8.03138ZM8.03138 1.00381V1.00353H7.03138V1.00381H8.03138ZM8.03138 1.00411V1.00381H7.03138V1.00411H8.03138ZM8.03138 1.00441V1.00411H7.03138V1.00441H8.03138ZM8.03138 1.00473V1.00441H7.03138V1.00473H8.03138ZM8.03138 1.00507V1.00473H7.03138V1.00507H8.03138ZM8.03138 1.00541V1.00507H7.03138V1.00541H8.03138ZM8.03138 1.00577V1.00541H7.03138V1.00577H8.03138ZM8.03138 1.00614V1.00577H7.03138V1.00614H8.03138ZM8.03138 1.00652V1.00614H7.03138V1.00652H8.03138ZM8.03138 1.00692V1.00652H7.03138V1.00692H8.03138ZM8.03138 1.00733V1.00692H7.03138V1.00733H8.03138ZM8.03138 1.00775V1.00733H7.03138V1.00775H8.03138ZM8.03138 1.00819V1.00775H7.03138V1.00819H8.03138ZM8.03138 1.00864V1.00819H7.03138V1.00864H8.03138ZM8.03138 1.0091V1.00864H7.03138V1.0091H8.03138ZM8.03138 1.00958V1.0091H7.03138V1.00958H8.03138ZM8.03138 1.01007V1.00958H7.03138V1.01007H8.03138ZM8.03138 1.01058V1.01007H7.03138V1.01058H8.03138ZM8.03138 1.0111V1.01058H7.03138V1.0111H8.03138ZM8.03138 1.01164V1.0111H7.03138V1.01164H8.03138ZM8.03138 1.01219V1.01164H7.03138V1.01219H8.03138ZM8.03138 1.01275V1.01219H7.03138V1.01275H8.03138ZM8.03138 1.01333V1.01275H7.03138V1.01333H8.03138ZM8.03138 1.01392V1.01333H7.03138V1.01392H8.03138ZM8.03138 1.01453V1.01392H7.03138V1.01453H8.03138ZM8.03138 1.01516V1.01453H7.03138V1.01516H8.03138ZM8.03138 1.0158V1.01516H7.03138V1.0158H8.03138ZM8.03138 1.01645V1.0158H7.03138V1.01645H8.03138ZM8.03138 1.01712V1.01645H7.03138V1.01712H8.03138ZM8.03138 1.01781V1.01712H7.03138V1.01781H8.03138ZM8.03138 1.01851V1.01781H7.03138V1.01851H8.03138ZM8.03138 1.01923V1.01851H7.03138V1.01923H8.03138ZM8.03138 1.01996V1.01923H7.03138V1.01996H8.03138ZM8.03138 1.02071V1.01996H7.03138V1.02071H8.03138ZM8.03138 1.02148V1.02071H7.03138V1.02148H8.03138ZM8.03138 1.02226V1.02148H7.03138V1.02226H8.03138ZM8.03138 1.02306V1.02226H7.03138V1.02306H8.03138ZM8.03138 1.02388V1.02306H7.03138V1.02388H8.03138ZM8.03138 1.02471V1.02388H7.03138V1.02471H8.03138ZM8.03138 1.02556V1.02471H7.03138V1.02556H8.03138ZM8.03138 1.02643V1.02556H7.03138V1.02643H8.03138ZM8.03138 1.02731V1.02643H7.03138V1.02731H8.03138ZM8.03138 1.02822V1.02731H7.03138V1.02822H8.03138ZM8.03138 1.02914V1.02822H7.03138V1.02914H8.03138ZM8.03138 1.03007V1.02914H7.03138V1.03007H8.03138ZM8.03138 1.03103V1.03007H7.03138V1.03103H8.03138ZM8.03138 1.032V1.03103H7.03138V1.032H8.03138ZM8.03138 1.03299V1.032H7.03138V1.03299H8.03138ZM8.03138 1.034V1.03299H7.03138V1.034H8.03138ZM8.03138 1.03503V1.034H7.03138V1.03503H8.03138ZM8.03138 1.03607V1.03503H7.03138V1.03607H8.03138ZM8.03138 1.03714V1.03607H7.03138V1.03714H8.03138ZM8.03138 1.03822V1.03714H7.03138V1.03822H8.03138ZM8.03138 1.03932V1.03822H7.03138V1.03932H8.03138ZM8.03138 1.04044V1.03932H7.03138V1.04044H8.03138ZM8.03138 1.04158V1.04044H7.03138V1.04158H8.03138ZM8.03138 1.04274V1.04158H7.03138V1.04274H8.03138ZM8.03138 1.04392V1.04274H7.03138V1.04392H8.03138ZM8.03138 1.04511V1.04392H7.03138V1.04511H8.03138ZM8.03138 1.04633V1.04511H7.03138V1.04633H8.03138ZM8.03138 1.04757V1.04633H7.03138V1.04757H8.03138ZM8.03138 1.04882V1.04757H7.03138V1.04882H8.03138ZM8.03138 1.0501V1.04882H7.03138V1.0501H8.03138ZM8.03138 1.0514V1.0501H7.03138V1.0514H8.03138ZM8.03138 1.05271V1.0514H7.03138V1.05271H8.03138ZM8.03138 1.05405V1.05271H7.03138V1.05405H8.03138ZM8.03138 1.05541V1.05405H7.03138V1.05541H8.03138ZM8.03138 1.05678V1.05541H7.03138V1.05678H8.03138ZM8.03138 1.05818V1.05678H7.03138V1.05818H8.03138ZM8.03138 1.0596V1.05818H7.03138V1.0596H8.03138ZM8.03138 1.06104V1.0596H7.03138V1.06104H8.03138ZM8.03138 1.0625V1.06104H7.03138V1.0625H8.03138ZM8.03138 1.06399V1.0625H7.03138V1.06399H8.03138ZM8.03138 1.06549V1.06399H7.03138V1.06549H8.03138ZM8.03138 1.06701V1.06549H7.03138V1.06701H8.03138ZM8.03138 1.06856V1.06701H7.03138V1.06856H8.03138ZM8.03138 1.07013V1.06856H7.03138V1.07013H8.03138ZM8.03138 1.07172V1.07013H7.03138V1.07172H8.03138ZM8.03138 1.07333V1.07172H7.03138V1.07333H8.03138ZM8.03138 1.07497V1.07333H7.03138V1.07497H8.03138ZM8.03138 1.07662V1.07497H7.03138V1.07662H8.03138ZM8.03138 1.0783V1.07662H7.03138V1.0783H8.03138ZM8.03138 1.08V1.0783H7.03138V1.08H8.03138ZM8.03138 1.08173V1.08H7.03138V1.08173H8.03138ZM8.03138 1.08348V1.08173H7.03138V1.08348H8.03138ZM8.03138 1.08525V1.08348H7.03138V1.08525H8.03138ZM8.03138 1.08704V1.08525H7.03138V1.08704H8.03138ZM8.03138 1.08885V1.08704H7.03138V1.08885H8.03138ZM8.03138 1.09069V1.08885H7.03138V1.09069H8.03138ZM8.03138 1.09256V1.09069H7.03138V1.09256H8.03138ZM8.03138 1.09444V1.09256H7.03138V1.09444H8.03138ZM8.03138 1.09635V1.09444H7.03138V1.09635H8.03138ZM8.03138 1.09829V1.09635H7.03138V1.09829H8.03138ZM8.03138 1.10024V1.09829H7.03138V1.10024H8.03138ZM8.03138 1.10222V1.10024H7.03138V1.10222H8.03138ZM8.03138 1.10423V1.10222H7.03138V1.10423H8.03138ZM8.03138 1.10626V1.10423H7.03138V1.10626H8.03138ZM8.03138 1.10831V1.10626H7.03138V1.10831H8.03138ZM8.03138 1.11039V1.10831H7.03138V1.11039H8.03138ZM8.03138 1.1125V1.11039H7.03138V1.1125H8.03138ZM8.03138 1.11462V1.1125H7.03138V1.11462H8.03138ZM8.03138 1.11678V1.11462H7.03138V1.11678H8.03138ZM8.03138 1.11896V1.11678H7.03138V1.11896H8.03138ZM8.03138 1.12116V1.11896H7.03138V1.12116H8.03138ZM8.03138 1.12339V1.12116H7.03138V1.12339H8.03138ZM8.03138 1.12564V1.12339H7.03138V1.12564H8.03138ZM8.03138 1.12792V1.12564H7.03138V1.12792H8.03138ZM8.03138 1.13023V1.12792H7.03138V1.13023H8.03138ZM8.03138 1.13256V1.13023H7.03138V1.13256H8.03138ZM8.03138 1.13491V1.13256H7.03138V1.13491H8.03138ZM8.03138 1.1373V1.13491H7.03138V1.1373H8.03138ZM8.03138 1.13971V1.1373H7.03138V1.13971H8.03138ZM8.03138 1.14214V1.13971H7.03138V1.14214H8.03138ZM8.03138 1.1446V1.14214H7.03138V1.1446H8.03138ZM8.03138 1.14709V1.1446H7.03138V1.14709H8.03138ZM8.03138 1.14961V1.14709H7.03138V1.14961H8.03138ZM8.03138 1.15215V1.14961H7.03138V1.15215H8.03138ZM8.03138 1.15472V1.15215H7.03138V1.15472H8.03138ZM8.03138 1.15732V1.15472H7.03138V1.15732H8.03138ZM8.03138 1.15994V1.15732H7.03138V1.15994H8.03138ZM8.03138 1.16259V1.15994H7.03138V1.16259H8.03138ZM8.03138 1.16527V1.16259H7.03138V1.16527H8.03138ZM8.03138 1.16797V1.16527H7.03138V1.16797H8.03138ZM8.03138 1.17071V1.16797H7.03138V1.17071H8.03138ZM8.03138 1.17347V1.17071H7.03138V1.17347H8.03138ZM8.03138 1.17626V1.17347H7.03138V1.17626H8.03138ZM8.03138 1.17908V1.17626H7.03138V1.17908H8.03138ZM8.03138 1.18192V1.17908H7.03138V1.18192H8.03138ZM8.03138 1.1848V1.18192H7.03138V1.1848H8.03138ZM8.03138 1.1877V1.1848H7.03138V1.1877H8.03138ZM8.03138 1.19063V1.1877H7.03138V1.19063H8.03138ZM8.03138 1.19359V1.19063H7.03138V1.19359H8.03138ZM8.03138 1.19658V1.19359H7.03138V1.19658H8.03138ZM8.03138 1.1996V1.19658H7.03138V1.1996H8.03138ZM8.03138 1.20265V1.1996H7.03138V1.20265H8.03138ZM8.03138 1.20572V1.20265H7.03138V1.20572H8.03138ZM8.03138 1.20883V1.20572H7.03138V1.20883H8.03138ZM8.03138 1.21196V1.20883H7.03138V1.21196H8.03138ZM8.03138 1.21513V1.21196H7.03138V1.21513H8.03138ZM8.03138 1.21832V1.21513H7.03138V1.21832H8.03138ZM8.03138 1.22155V1.21832H7.03138V1.22155H8.03138ZM8.03138 1.2248V1.22155H7.03138V1.2248H8.03138ZM8.03138 1.22809V1.2248H7.03138V1.22809H8.03138ZM8.03138 1.2314V1.22809H7.03138V1.2314H8.03138ZM8.03138 1.23475V1.2314H7.03138V1.23475H8.03138ZM8.03138 1.23813V1.23475H7.03138V1.23813H8.03138ZM8.03138 1.24153V1.23813H7.03138V1.24153H8.03138ZM8.03138 1.24497V1.24153H7.03138V1.24497H8.03138ZM8.03138 1.24844V1.24497H7.03138V1.24844H8.03138ZM8.03138 1.25194V1.24844H7.03138V1.25194H8.03138ZM8.03138 1.25547V1.25194H7.03138V1.25547H8.03138ZM8.03138 1.25903V1.25547H7.03138V1.25903H8.03138ZM8.03138 1.26263V1.25903H7.03138V1.26263H8.03138ZM8.03138 1.26625V1.26263H7.03138V1.26625H8.03138ZM8.03138 1.26991V1.26625H7.03138V1.26991H8.03138ZM8.03138 1.2736V1.26991H7.03138V1.2736H8.03138ZM8.03138 1.27732V1.2736H7.03138V1.27732H8.03138ZM8.03138 1.28107V1.27732H7.03138V1.28107H8.03138ZM8.03138 1.28486V1.28107H7.03138V1.28486H8.03138ZM8.03138 1.28867V1.28486H7.03138V1.28867H8.03138ZM8.03138 1.29252V1.28867H7.03138V1.29252H8.03138ZM8.03138 1.2964V1.29252H7.03138V1.2964H8.03138ZM8.03138 1.30032V1.2964H7.03138V1.30032H8.03138ZM8.03138 1.30427V1.30032H7.03138V1.30427H8.03138ZM8.03138 1.30825V1.30427H7.03138V1.30825H8.03138ZM8.03138 1.31226V1.30825H7.03138V1.31226H8.03138ZM8.03138 1.31631V1.31226H7.03138V1.31631H8.03138ZM8.03138 1.32039V1.31631H7.03138V1.32039H8.03138ZM8.03138 1.32451V1.32039H7.03138V1.32451H8.03138ZM8.03138 1.32865V1.32451H7.03138V1.32865H8.03138ZM8.03138 1.33284V1.32865H7.03138V1.33284H8.03138ZM8.03138 1.33705V1.33284H7.03138V1.33705H8.03138ZM8.03138 1.3413V1.33705H7.03138V1.3413H8.03138ZM8.03138 1.34558V1.3413H7.03138V1.34558H8.03138ZM8.03138 1.3499V1.34558H7.03138V1.3499H8.03138ZM8.03138 1.35425V1.3499H7.03138V1.35425H8.03138ZM8.03138 1.35864V1.35425H7.03138V1.35864H8.03138ZM8.03138 1.36306V1.35864H7.03138V1.36306H8.03138ZM8.03138 1.36752V1.36306H7.03138V1.36752H8.03138ZM8.03138 1.37201V1.36752H7.03138V1.37201H8.03138ZM8.03138 1.37654V1.37201H7.03138V1.37654H8.03138ZM8.03138 1.3811V1.37654H7.03138V1.3811H8.03138ZM8.03138 1.38569V1.3811H7.03138V1.38569H8.03138ZM8.03138 1.39033V1.38569H7.03138V1.39033H8.03138ZM8.03138 1.39499V1.39033H7.03138V1.39499H8.03138ZM8.03138 1.3997V1.39499H7.03138V1.3997H8.03138ZM8.03138 1.40444V1.3997H7.03138V1.40444H8.03138ZM8.03138 1.40921V1.40444H7.03138V1.40921H8.03138ZM8.03138 1.41402V1.40921H7.03138V1.41402H8.03138ZM8.03138 1.41887V1.41402H7.03138V1.41887H8.03138ZM8.03138 1.42375V1.41887H7.03138V1.42375H8.03138ZM8.03138 1.42867V1.42375H7.03138V1.42867H8.03138ZM8.03138 1.43363V1.42867H7.03138V1.43363H8.03138ZM8.03138 1.43862V1.43363H7.03138V1.43862H8.03138ZM8.03138 1.44365V1.43862H7.03138V1.44365H8.03138ZM8.03138 1.44872V1.44365H7.03138V1.44872H8.03138ZM8.03138 1.45382V1.44872H7.03138V1.45382H8.03138ZM8.03138 1.45897V1.45382H7.03138V1.45897H8.03138ZM8.03138 1.46414V1.45897H7.03138V1.46414H8.03138ZM8.03138 1.46936V1.46414H7.03138V1.46936H8.03138ZM8.03138 1.47461V1.46936H7.03138V1.47461H8.03138ZM8.03138 1.47991V1.47461H7.03138V1.47991H8.03138ZM8.03138 1.48523V1.47991H7.03138V1.48523H8.03138ZM8.03138 1.4906V1.48523H7.03138V1.4906H8.03138ZM8.03138 1.49601V1.4906H7.03138V1.49601H8.03138ZM8.03138 1.50145V1.49601H7.03138V1.50145H8.03138ZM8.03138 1.50693V1.50145H7.03138V1.50693H8.03138ZM8.03138 1.51245V1.50693H7.03138V1.51245H8.03138ZM8.03138 1.51801V1.51245H7.03138V1.51801H8.03138ZM8.03138 1.52361V1.51801H7.03138V1.52361H8.03138ZM8.03138 1.52925V1.52361H7.03138V1.52925H8.03138ZM8.03138 1.53492V1.52925H7.03138V1.53492H8.03138ZM8.03138 1.54064V1.53492H7.03138V1.54064H8.03138ZM8.03138 1.54639V1.54064H7.03138V1.54639H8.03138ZM8.03138 1.55219V1.54639H7.03138V1.55219H8.03138ZM8.03138 1.55802V1.55219H7.03138V1.55802H8.03138ZM8.03138 1.56389V1.55802H7.03138V1.56389H8.03138ZM8.03138 1.5698V1.56389H7.03138V1.5698H8.03138ZM8.03138 1.57576V1.5698H7.03138V1.57576H8.03138ZM8.03138 1.58175V1.57576H7.03138V1.58175H8.03138ZM8.03138 1.58778V1.58175H7.03138V1.58778H8.03138ZM8.03138 1.59385V1.58778H7.03138V1.59385H8.03138ZM8.03138 1.59997V1.59385H7.03138V1.59997H8.03138ZM8.03138 1.60612V1.59997H7.03138V1.60612H8.03138ZM8.03138 1.61231V1.60612H7.03138V1.61231H8.03138ZM8.03138 1.61855V1.61231H7.03138V1.61855H8.03138ZM8.03138 1.62483V1.61855H7.03138V1.62483H8.03138ZM8.03138 1.63114V1.62483H7.03138V1.63114H8.03138ZM8.03138 1.6375V1.63114H7.03138V1.6375H8.03138ZM8.03138 1.6439V1.6375H7.03138V1.6439H8.03138ZM8.03138 1.65034V1.6439H7.03138V1.65034H8.03138ZM8.03138 1.65682V1.65034H7.03138V1.65682H8.03138ZM8.03138 1.66335V1.65682H7.03138V1.66335H8.03138ZM8.03138 1.66992V1.66335H7.03138V1.66992H8.03138ZM8.03138 1.67652V1.66992H7.03138V1.67652H8.03138ZM8.03138 1.68317V1.67652H7.03138V1.68317H8.03138ZM8.03138 1.68987V1.68317H7.03138V1.68987H8.03138ZM8.03138 1.6966V1.68987H7.03138V1.6966H8.03138ZM8.03138 1.70338V1.6966H7.03138V1.70338H8.03138ZM8.03138 1.7102V1.70338H7.03138V1.7102H8.03138ZM8.03138 1.71706V1.7102H7.03138V1.71706H8.03138ZM8.03138 1.72397V1.71706H7.03138V1.72397H8.03138ZM8.03138 1.73091V1.72397H7.03138V1.73091H8.03138ZM8.03138 1.7379V1.73091H7.03138V1.7379H8.03138ZM8.03138 1.74494V1.7379H7.03138V1.74494H8.03138ZM8.03138 1.75202V1.74494H7.03138V1.75202H8.03138ZM8.03138 1.75914V1.75202H7.03138V1.75914H8.03138ZM8.03138 1.7663V1.75914H7.03138V1.7663H8.03138ZM8.03138 1.77351V1.7663H7.03138V1.77351H8.03138ZM8.03138 1.78077V1.77351H7.03138V1.78077H8.03138ZM8.03138 1.78806V1.78077H7.03138V1.78806H8.03138ZM8.03138 1.7954V1.78806H7.03138V1.7954H8.03138ZM8.03138 1.80279V1.7954H7.03138V1.80279H8.03138ZM8.03138 1.81022V1.80279H7.03138V1.81022H8.03138ZM8.03138 1.81769V1.81022H7.03138V1.81769H8.03138ZM8.03138 1.82521V1.81769H7.03138V1.82521H8.03138ZM8.03138 1.83277V1.82521H7.03138V1.83277H8.03138ZM8.03138 1.84038V1.83277H7.03138V1.84038H8.03138ZM8.03138 1.84803V1.84038H7.03138V1.84803H8.03138ZM8.03138 1.85573V1.84803H7.03138V1.85573H8.03138ZM8.03138 1.86348V1.85573H7.03138V1.86348H8.03138ZM8.03138 1.87127V1.86348H7.03138V1.87127H8.03138ZM8.03138 1.8791V1.87127H7.03138V1.8791H8.03138ZM8.03138 1.88698V1.8791H7.03138V1.88698H8.03138ZM8.03138 1.89491V1.88698H7.03138V1.89491H8.03138ZM8.03138 1.90288V1.89491H7.03138V1.90288H8.03138ZM8.03138 1.9109V1.90288H7.03138V1.9109H8.03138ZM8.03138 1.91896V1.9109H7.03138V1.91896H8.03138ZM8.03138 1.92707V1.91896H7.03138V1.92707H8.03138ZM8.03138 1.93523V1.92707H7.03138V1.93523H8.03138ZM8.03138 1.94343V1.93523H7.03138V1.94343H8.03138ZM8.03138 1.95168V1.94343H7.03138V1.95168H8.03138ZM8.03138 1.95998V1.95168H7.03138V1.95998H8.03138ZM8.03138 1.96832V1.95998H7.03138V1.96832H8.03138ZM8.03138 1.97671V1.96832H7.03138V1.97671H8.03138ZM8.03138 1.98515V1.97671H7.03138V1.98515H8.03138ZM8.03138 1.99364V1.98515H7.03138V1.99364H8.03138ZM8.03138 2.00217V1.99364H7.03138V2.00217H8.03138ZM8.03138 2.01075V2.00217H7.03138V2.01075H8.03138ZM8.03138 2.01938V2.01075H7.03138V2.01938H8.03138ZM8.03138 2.02805V2.01938H7.03138V2.02805H8.03138ZM8.03138 2.03678V2.02805H7.03138V2.03678H8.03138ZM8.03138 2.04555V2.03678H7.03138V2.04555H8.03138ZM8.03138 2.05437V2.04555H7.03138V2.05437H8.03138ZM8.03138 2.06324V2.05437H7.03138V2.06324H8.03138ZM8.03138 2.07216V2.06324H7.03138V2.07216H8.03138ZM8.03138 2.08112V2.07216H7.03138V2.08112H8.03138ZM8.03138 2.09014V2.08112H7.03138V2.09014H8.03138ZM8.03138 2.0992V2.09014H7.03138V2.0992H8.03138ZM8.03138 2.10831V2.0992H7.03138V2.10831H8.03138ZM8.03138 2.11747V2.10831H7.03138V2.11747H8.03138ZM8.03138 2.12668V2.11747H7.03138V2.12668H8.03138ZM8.03138 2.13594V2.12668H7.03138V2.13594H8.03138ZM8.03138 2.14525V2.13594H7.03138V2.14525H8.03138ZM8.03138 2.15461V2.14525H7.03138V2.15461H8.03138ZM8.03138 2.16402V2.15461H7.03138V2.16402H8.03138ZM8.03138 2.17348V2.16402H7.03138V2.17348H8.03138ZM8.03138 2.18299V2.17348H7.03138V2.18299H8.03138ZM8.03138 2.19255V2.18299H7.03138V2.19255H8.03138ZM8.03138 2.20216V2.19255H7.03138V2.20216H8.03138ZM8.03138 2.21182V2.20216H7.03138V2.21182H8.03138ZM8.03138 2.22153V2.21182H7.03138V2.22153H8.03138ZM8.03138 2.23129V2.22153H7.03138V2.23129H8.03138ZM8.03138 2.2411V2.23129H7.03138V2.2411H8.03138ZM8.03138 2.25096V2.2411H7.03138V2.25096H8.03138ZM8.03138 2.26088V2.25096H7.03138V2.26088H8.03138ZM8.03138 2.27084V2.26088H7.03138V2.27084H8.03138ZM8.03138 2.28086V2.27084H7.03138V2.28086H8.03138ZM8.03138 2.29092V2.28086H7.03138V2.29092H8.03138ZM8.03138 2.30104V2.29092H7.03138V2.30104H8.03138ZM8.03138 2.31121V2.30104H7.03138V2.31121H8.03138ZM8.03138 2.32144V2.31121H7.03138V2.32144H8.03138ZM8.03138 2.33171V2.32144H7.03138V2.33171H8.03138ZM8.03138 2.34204V2.33171H7.03138V2.34204H8.03138ZM8.03138 2.35242V2.34204H7.03138V2.35242H8.03138ZM8.03138 2.36285V2.35242H7.03138V2.36285H8.03138ZM8.03138 2.37333V2.36285H7.03138V2.37333H8.03138ZM8.03138 2.38387V2.37333H7.03138V2.38387H8.03138ZM8.03138 2.39446V2.38387H7.03138V2.39446H8.03138ZM8.03138 2.4051V2.39446H7.03138V2.4051H8.03138ZM8.03138 2.41579V2.4051H7.03138V2.41579H8.03138ZM8.03138 2.42654V2.41579H7.03138V2.42654H8.03138ZM8.03138 2.43734V2.42654H7.03138V2.43734H8.03138ZM8.03138 2.44819V2.43734H7.03138V2.44819H8.03138ZM8.03138 2.4591V2.44819H7.03138V2.4591H8.03138ZM8.03138 2.47006V2.4591H7.03138V2.47006H8.03138ZM8.03138 2.48108V2.47006H7.03138V2.48108H8.03138ZM8.03138 2.49215V2.48108H7.03138V2.49215H8.03138ZM8.03138 2.50327V2.49215H7.03138V2.50327H8.03138ZM8.03138 2.51445V2.50327H7.03138V2.51445H8.03138ZM8.03138 2.52568V2.51445H7.03138V2.52568H8.03138ZM8.03138 2.53696V2.52568H7.03138V2.53696H8.03138ZM8.03138 2.5483V2.53696H7.03138V2.5483H8.03138ZM8.03138 2.5597V2.5483H7.03138V2.5597H8.03138ZM8.03138 2.57115V2.5597H7.03138V2.57115H8.03138ZM8.03138 2.58265V2.57115H7.03138V2.58265H8.03138ZM8.03138 2.59421V2.58265H7.03138V2.59421H8.03138ZM8.03138 2.60582V2.59421H7.03138V2.60582H8.03138ZM8.03138 2.61749V2.60582H7.03138V2.61749H8.03138ZM8.03138 2.62922V2.61749H7.03138V2.62922H8.03138ZM8.03138 2.641V2.62922H7.03138V2.641H8.03138ZM8.03138 2.65284V2.641H7.03138V2.65284H8.03138ZM8.03138 2.66473V2.65284H7.03138V2.66473H8.03138ZM8.03138 2.67667V2.66473H7.03138V2.67667H8.03138ZM8.03138 2.68868V2.67667H7.03138V2.68868H8.03138ZM8.03138 2.70074V2.68868H7.03138V2.70074H8.03138ZM8.03138 2.71285V2.70074H7.03138V2.71285H8.03138ZM8.03138 2.72503V2.71285H7.03138V2.72503H8.03138ZM8.03138 2.73726V2.72503H7.03138V2.73726H8.03138ZM8.03138 2.74954V2.73726H7.03138V2.74954H8.03138ZM8.03138 2.76189V2.74954H7.03138V2.76189H8.03138ZM8.03138 2.77429V2.76189H7.03138V2.77429H8.03138ZM8.03138 2.78674V2.77429H7.03138V2.78674H8.03138ZM8.03138 2.79926V2.78674H7.03138V2.79926H8.03138ZM8.03138 2.81183V2.79926H7.03138V2.81183H8.03138ZM8.03138 2.82446V2.81183H7.03138V2.82446H8.03138ZM8.03138 2.83714V2.82446H7.03138V2.83714H8.03138ZM8.03138 2.84989V2.83714H7.03138V2.84989H8.03138ZM8.03138 2.86269V2.84989H7.03138V2.86269H8.03138ZM8.03138 2.87555V2.86269H7.03138V2.87555H8.03138ZM8.03138 2.88847V2.87555H7.03138V2.88847H8.03138ZM8.03138 2.90144V2.88847H7.03138V2.90144H8.03138ZM8.03138 2.91448V2.90144H7.03138V2.91448H8.03138ZM8.03138 2.92757V2.91448H7.03138V2.92757H8.03138ZM8.03138 2.94072V2.92757H7.03138V2.94072H8.03138ZM8.03138 2.95393V2.94072H7.03138V2.95393H8.03138ZM8.03138 2.9672V2.95393H7.03138V2.9672H8.03138ZM8.03138 2.98053V2.9672H7.03138V2.98053H8.03138ZM8.03138 2.99391V2.98053H7.03138V2.99391H8.03138ZM8.03138 3.00736V2.99391H7.03138V3.00736H8.03138ZM8.03138 3.02086V3.00736H7.03138V3.02086H8.03138ZM8.03138 3.03443V3.02086H7.03138V3.03443H8.03138ZM8.03138 3.04805V3.03443H7.03138V3.04805H8.03138ZM8.03138 3.06174V3.04805H7.03138V3.06174H8.03138ZM8.03138 3.07548V3.06174H7.03138V3.07548H8.03138ZM8.03138 3.08929V3.07548H7.03138V3.08929H8.03138ZM8.03138 3.10315V3.08929H7.03138V3.10315H8.03138ZM8.03138 3.11708V3.10315H7.03138V3.11708H8.03138ZM8.03138 3.13106V3.11708H7.03138V3.13106H8.03138ZM8.03138 3.14511V3.13106H7.03138V3.14511H8.03138ZM8.03138 3.15921V3.14511H7.03138V3.15921H8.03138ZM8.03138 3.17338V3.15921H7.03138V3.17338H8.03138ZM8.03138 3.18761V3.17338H7.03138V3.18761H8.03138ZM8.03138 3.2019V3.18761H7.03138V3.2019H8.03138ZM8.03138 3.21625V3.2019H7.03138V3.21625H8.03138ZM8.03138 3.23066V3.21625H7.03138V3.23066H8.03138ZM8.03138 3.24513V3.23066H7.03138V3.24513H8.03138ZM8.03138 3.25967V3.24513H7.03138V3.25967H8.03138ZM8.03138 3.27426V3.25967H7.03138V3.27426H8.03138ZM8.03138 3.28892V3.27426H7.03138V3.28892H8.03138ZM8.03138 3.30364V3.28892H7.03138V3.30364H8.03138ZM8.03138 3.31842V3.30364H7.03138V3.31842H8.03138ZM8.03138 3.33327V3.31842H7.03138V3.33327H8.03138ZM8.03138 3.34817V3.33327H7.03138V3.34817H8.03138ZM8.03138 3.36314V3.34817H7.03138V3.36314H8.03138ZM8.03138 3.37817V3.36314H7.03138V3.37817H8.03138ZM8.03138 3.39327V3.37817H7.03138V3.39327H8.03138ZM8.03138 3.40842V3.39327H7.03138V3.40842H8.03138ZM8.03138 3.42364V3.40842H7.03138V3.42364H8.03138ZM8.03138 3.43892V3.42364H7.03138V3.43892H8.03138ZM8.03138 3.45427V3.43892H7.03138V3.45427H8.03138ZM8.03138 3.46968V3.45427H7.03138V3.46968H8.03138ZM8.03138 3.48515V3.46968H7.03138V3.48515H8.03138ZM8.03138 3.50069V3.48515H7.03138V3.50069H8.03138ZM8.03138 3.51629V3.50069H7.03138V3.51629H8.03138ZM8.03138 3.53195V3.51629H7.03138V3.53195H8.03138ZM8.03138 3.54768V3.53195H7.03138V3.54768H8.03138ZM8.03138 3.56347V3.54768H7.03138V3.56347H8.03138ZM8.03138 3.57933V3.56347H7.03138V3.57933H8.03138ZM8.03138 3.59525V3.57933H7.03138V3.59525H8.03138ZM8.03138 3.61123V3.59525H7.03138V3.61123H8.03138ZM8.03138 3.62728V3.61123H7.03138V3.62728H8.03138ZM8.03138 3.6434V3.62728H7.03138V3.6434H8.03138ZM8.03138 3.65958V3.6434H7.03138V3.65958H8.03138ZM8.03138 3.67582V3.65958H7.03138V3.67582H8.03138ZM8.03138 3.69213V3.67582H7.03138V3.69213H8.03138ZM8.03138 3.7085V3.69213H7.03138V3.7085H8.03138ZM8.03138 3.72494V3.7085H7.03138V3.72494H8.03138ZM8.03138 3.74145V3.72494H7.03138V3.74145H8.03138ZM8.03138 3.75802V3.74145H7.03138V3.75802H8.03138ZM8.03138 3.77466V3.75802H7.03138V3.77466H8.03138ZM8.03138 3.79136V3.77466H7.03138V3.79136H8.03138ZM8.03138 3.80813V3.79136H7.03138V3.80813H8.03138ZM8.03138 3.82496V3.80813H7.03138V3.82496H8.03138ZM8.03138 3.84186V3.82496H7.03138V3.84186H8.03138ZM8.03138 3.85883V3.84186H7.03138V3.85883H8.03138ZM8.03138 3.87587V3.85883H7.03138V3.87587H8.03138ZM8.03138 3.89297V3.87587H7.03138V3.89297H8.03138ZM8.03138 3.91013V3.89297H7.03138V3.91013H8.03138ZM8.03138 3.92737V3.91013H7.03138V3.92737H8.03138ZM8.03138 3.94467V3.92737H7.03138V3.94467H8.03138ZM8.03138 3.96204V3.94467H7.03138V3.96204H8.03138ZM8.03138 3.97947V3.96204H7.03138V3.97947H8.03138ZM8.03138 3.99698V3.97947H7.03138V3.99698H8.03138ZM8.03138 4.01455V3.99698H7.03138V4.01455H8.03138ZM8.03138 4.03219V4.01455H7.03138V4.03219H8.03138ZM8.03138 4.04989V4.03219H7.03138V4.04989H8.03138ZM8.03138 4.06767V4.04989H7.03138V4.06767H8.03138ZM8.03138 4.08551V4.06767H7.03138V4.08551H8.03138ZM8.03138 4.10342V4.08551H7.03138V4.10342H8.03138ZM8.03138 4.1214V4.10342H7.03138V4.1214H8.03138ZM8.03138 4.13945V4.1214H7.03138V4.13945H8.03138ZM8.03138 4.15756V4.13945H7.03138V4.15756H8.03138ZM8.03138 4.17575V4.15756H7.03138V4.17575H8.03138ZM8.03138 4.194V4.17575H7.03138V4.194H8.03138ZM8.03138 4.21232V4.194H7.03138V4.21232H8.03138ZM8.03138 4.23072V4.21232H7.03138V4.23072H8.03138ZM8.03138 4.24918V4.23072H7.03138V4.24918H8.03138ZM8.03138 4.26771V4.24918H7.03138V4.26771H8.03138ZM8.03138 4.28631V4.26771H7.03138V4.28631H8.03138ZM8.03138 4.30498V4.28631H7.03138V4.30498H8.03138ZM8.03138 4.32371V4.30498H7.03138V4.32371H8.03138ZM8.03138 4.34252V4.32371H7.03138V4.34252H8.03138ZM8.03138 4.3614V4.34252H7.03138V4.3614H8.03138ZM8.03138 4.38035V4.3614H7.03138V4.38035H8.03138ZM8.03138 4.39937V4.38035H7.03138V4.39937H8.03138ZM8.03138 4.41846V4.39937H7.03138V4.41846H8.03138ZM8.03138 4.43762V4.41846H7.03138V4.43762H8.03138ZM8.03138 4.45685V4.43762H7.03138V4.45685H8.03138ZM8.03138 4.47615V4.45685H7.03138V4.47615H8.03138ZM8.03138 4.49552V4.47615H7.03138V4.49552H8.03138ZM8.03138 4.51497V4.49552H7.03138V4.51497H8.03138ZM8.03138 4.53448V4.51497H7.03138V4.53448H8.03138ZM8.03138 4.55407V4.53448H7.03138V4.55407H8.03138ZM8.03138 4.57372V4.55407H7.03138V4.57372H8.03138ZM8.03138 4.59345V4.57372H7.03138V4.59345H8.03138ZM8.03138 4.61325V4.59345H7.03138V4.61325H8.03138ZM8.03138 4.63312V4.61325H7.03138V4.63312H8.03138ZM8.03138 4.65307V4.63312H7.03138V4.65307H8.03138ZM8.03138 4.67308V4.65307H7.03138V4.67308H8.03138ZM8.03138 4.69317V4.67308H7.03138V4.69317H8.03138ZM8.03138 4.71333V4.69317H7.03138V4.71333H8.03138ZM8.03138 4.73357V4.71333H7.03138V4.73357H8.03138ZM8.03138 4.75387V4.73357H7.03138V4.75387H8.03138ZM8.03138 4.77425V4.75387H7.03138V4.77425H8.03138ZM8.03138 4.7947V4.77425H7.03138V4.7947H8.03138ZM8.03138 4.81522V4.7947H7.03138V4.81522H8.03138ZM8.03138 4.83582V4.81522H7.03138V4.83582H8.03138ZM8.03138 4.85649V4.83582H7.03138V4.85649H8.03138ZM8.03138 4.87723V4.85649H7.03138V4.87723H8.03138ZM8.03138 4.89805V4.87723H7.03138V4.89805H8.03138ZM8.03138 4.91894V4.89805H7.03138V4.91894H8.03138ZM8.03138 4.9399V4.91894H7.03138V4.9399H8.03138ZM8.03138 4.96094V4.9399H7.03138V4.96094H8.03138ZM8.03138 4.98205V4.96094H7.03138V4.98205H8.03138ZM8.03138 5.00319V4.98205H7.03138V5.00319H8.03138ZM8.03138 5.0243V5.00319H7.03138V5.0243H8.03138ZM8.03138 5.04538V5.0243H7.03138V5.04538H8.03138ZM8.03138 5.06644V5.04538H7.03138V5.06644H8.03138ZM8.03138 5.08747V5.06644H7.03138V5.08747H8.03138ZM8.03138 5.10847V5.08747H7.03138V5.10847H8.03138ZM8.03138 5.12945V5.10847H7.03138V5.12945H8.03138ZM8.03138 5.1504V5.12945H7.03138V5.1504H8.03138ZM8.03138 5.17133V5.1504H7.03138V5.17133H8.03138ZM8.03138 5.19222V5.17133H7.03138V5.19222H8.03138ZM8.03138 5.2131V5.19222H7.03138V5.2131H8.03138ZM8.03138 5.23394V5.2131H7.03138V5.23394H8.03138ZM8.03138 5.25476V5.23394H7.03138V5.25476H8.03138ZM8.03138 5.27555V5.25476H7.03138V5.27555H8.03138ZM8.03138 5.29631V5.27555H7.03138V5.29631H8.03138ZM8.03138 5.31705V5.29631H7.03138V5.31705H8.03138ZM8.03138 5.33776V5.31705H7.03138V5.33776H8.03138ZM8.03138 5.35844V5.33776H7.03138V5.35844H8.03138ZM8.03138 5.37909V5.35844H7.03138V5.37909H8.03138ZM8.03138 5.39972V5.37909H7.03138V5.39972H8.03138ZM8.03138 5.42032V5.39972H7.03138V5.42032H8.03138ZM8.03138 5.44089V5.42032H7.03138V5.44089H8.03138ZM8.03138 5.46144V5.44089H7.03138V5.46144H8.03138ZM8.03138 5.48196V5.46144H7.03138V5.48196H8.03138ZM8.03138 5.50245V5.48196H7.03138V5.50245H8.03138ZM8.03138 5.52291V5.50245H7.03138V5.52291H8.03138ZM8.03138 5.54335V5.52291H7.03138V5.54335H8.03138ZM8.03138 5.56375V5.54335H7.03138V5.56375H8.03138ZM8.03138 5.58413V5.56375H7.03138V5.58413H8.03138ZM8.03138 5.60448V5.58413H7.03138V5.60448H8.03138ZM8.03138 5.62481V5.60448H7.03138V5.62481H8.03138ZM8.03138 5.6451V5.62481H7.03138V5.6451H8.03138ZM8.03138 5.66537V5.6451H7.03138V5.66537H8.03138ZM8.03138 5.68561V5.66537H7.03138V5.68561H8.03138ZM8.03138 5.70582V5.68561H7.03138V5.70582H8.03138ZM8.03138 5.72601V5.70582H7.03138V5.72601H8.03138ZM8.03138 5.74616V5.72601H7.03138V5.74616H8.03138ZM8.03138 5.76629V5.74616H7.03138V5.76629H8.03138ZM8.03138 5.78638V5.76629H7.03138V5.78638H8.03138ZM8.03138 5.80645V5.78638H7.03138V5.80645H8.03138ZM8.03138 5.8265V5.80645H7.03138V5.8265H8.03138ZM8.03138 5.84651V5.8265H7.03138V5.84651H8.03138ZM8.03138 5.86649V5.84651H7.03138V5.86649H8.03138ZM8.03138 5.88645V5.86649H7.03138V5.88645H8.03138ZM8.03138 5.90637V5.88645H7.03138V5.90637H8.03138ZM8.03138 5.92627V5.90637H7.03138V5.92627H8.03138ZM8.03138 5.94614V5.92627H7.03138V5.94614H8.03138ZM8.03138 5.96598V5.94614H7.03138V5.96598H8.03138ZM8.03138 5.98579V5.96598H7.03138V5.98579H8.03138ZM8.03138 6.00557V5.98579H7.03138V6.00557H8.03138ZM8.03138 6.02532V6.00557H7.03138V6.02532H8.03138ZM8.03138 6.04505V6.02532H7.03138V6.04505H8.03138ZM8.03138 6.06474V6.04505H7.03138V6.06474H8.03138ZM8.03138 6.08441V6.06474H7.03138V6.08441H8.03138ZM8.03138 6.10404V6.08441H7.03138V6.10404H8.03138ZM8.03138 6.12365V6.10404H7.03138V6.12365H8.03138ZM8.03138 6.14323V6.12365H7.03138V6.14323H8.03138ZM8.03138 6.16277V6.14323H7.03138V6.16277H8.03138ZM8.03138 6.18229V6.16277H7.03138V6.18229H8.03138ZM8.03138 6.20178V6.18229H7.03138V6.20178H8.03138ZM8.03138 6.22124V6.20178H7.03138V6.22124H8.03138ZM8.03138 6.24067V6.22124H7.03138V6.24067H8.03138ZM8.03138 6.26006V6.24067H7.03138V6.26006H8.03138ZM8.03138 6.27943V6.26006H7.03138V6.27943H8.03138ZM8.03138 6.29877V6.27943H7.03138V6.29877H8.03138ZM8.03138 6.31808V6.29877H7.03138V6.31808H8.03138ZM8.03138 6.33736V6.31808H7.03138V6.33736H8.03138ZM8.03138 6.35661V6.33736H7.03138V6.35661H8.03138ZM8.03138 6.37583V6.35661H7.03138V6.37583H8.03138ZM8.03138 6.39501V6.37583H7.03138V6.39501H8.03138ZM8.03138 6.41417V6.39501H7.03138V6.41417H8.03138ZM8.03138 6.4333V6.41417H7.03138V6.4333H8.03138ZM8.03138 6.4524V6.4333H7.03138V6.4524H8.03138ZM8.03138 6.47146V6.4524H7.03138V6.47146H8.03138ZM8.03138 6.4905V6.47146H7.03138V6.4905H8.03138ZM8.03138 6.50951V6.4905H7.03138V6.50951H8.03138ZM8.03138 6.52848V6.50951H7.03138V6.52848H8.03138ZM8.03138 6.54743V6.52848H7.03138V6.54743H8.03138ZM8.03138 6.56634V6.54743H7.03138V6.56634H8.03138ZM8.03138 6.58522V6.56634H7.03138V6.58522H8.03138ZM8.03138 6.60407V6.58522H7.03138V6.60407H8.03138ZM8.03138 6.62289V6.60407H7.03138V6.62289H8.03138ZM8.03138 6.64168V6.62289H7.03138V6.64168H8.03138ZM8.03138 6.66044V6.64168H7.03138V6.66044H8.03138ZM8.03138 6.67917V6.66044H7.03138V6.67917H8.03138ZM8.03138 6.69787V6.67917H7.03138V6.69787H8.03138ZM8.03138 6.71653V6.69787H7.03138V6.71653H8.03138ZM8.03138 6.73517V6.71653H7.03138V6.73517H8.03138ZM8.03138 6.75377V6.73517H7.03138V6.75377H8.03138ZM8.03138 6.77234V6.75377H7.03138V6.77234H8.03138ZM8.03138 6.79088V6.77234H7.03138V6.79088H8.03138ZM8.03138 6.80939V6.79088H7.03138V6.80939H8.03138ZM8.03138 6.82786V6.80939H7.03138V6.82786H8.03138ZM8.03138 6.84631V6.82786H7.03138V6.84631H8.03138ZM8.03138 6.86472V6.84631H7.03138V6.86472H8.03138ZM8.03138 6.8831V6.86472H7.03138V6.8831H8.03138ZM8.03138 6.90145V6.8831H7.03138V6.90145H8.03138ZM8.03138 6.91977V6.90145H7.03138V6.91977H8.03138ZM8.03138 6.93806V6.91977H7.03138V6.93806H8.03138ZM8.03138 6.95631V6.93806H7.03138V6.95631H8.03138ZM8.03138 6.97453V6.95631H7.03138V6.97453H8.03138ZM8.03138 6.99272V6.97453H7.03138V6.99272H8.03138ZM8.03138 7.01088V6.99272H7.03138V7.01088H8.03138ZM8.03138 7.029V7.01088H7.03138V7.029H8.03138ZM8.03138 7.04709V7.029H7.03138V7.04709H8.03138ZM8.03138 7.06516V7.04709H7.03138V7.06516H8.03138ZM8.03138 7.08318V7.06516H7.03138V7.08318H8.03138ZM8.03138 7.10118V7.08318H7.03138V7.10118H8.03138ZM8.03138 7.11914V7.10118H7.03138V7.11914H8.03138ZM8.03138 7.13707V7.11914H7.03138V7.13707H8.03138ZM8.03138 7.15497V7.13707H7.03138V7.15497H8.03138ZM8.03138 7.17283V7.15497H7.03138V7.17283H8.03138ZM8.03138 7.19067V7.17283H7.03138V7.19067H8.03138ZM8.03138 7.20847V7.19067H7.03138V7.20847H8.03138ZM8.03138 7.22623V7.20847H7.03138V7.22623H8.03138ZM8.03138 7.24397V7.22623H7.03138V7.24397H8.03138ZM8.03138 7.26167V7.24397H7.03138V7.26167H8.03138ZM8.03138 7.27933V7.26167H7.03138V7.27933H8.03138ZM8.03138 7.29697V7.27933H7.03138V7.29697H8.03138ZM8.03138 7.31457V7.29697H7.03138V7.31457H8.03138ZM8.03138 7.33214V7.31457H7.03138V7.33214H8.03138ZM8.03138 7.34967V7.33214H7.03138V7.34967H8.03138ZM8.03138 7.36717V7.34967H7.03138V7.36717H8.03138ZM8.03138 7.38464V7.36717H7.03138V7.38464H8.03138ZM8.03138 7.40207V7.38464H7.03138V7.40207H8.03138ZM8.03138 7.41947V7.40207H7.03138V7.41947H8.03138ZM8.03138 7.43684V7.41947H7.03138V7.43684H8.03138ZM8.03138 7.45417V7.43684H7.03138V7.45417H8.03138ZM8.03138 7.47147V7.45417H7.03138V7.47147H8.03138ZM8.03138 7.48874V7.47147H7.03138V7.48874H8.03138ZM8.03138 7.50597V7.48874H7.03138V7.50597H8.03138ZM8.03138 7.52317V7.50597H7.03138V7.52317H8.03138ZM8.03138 7.54033V7.52317H7.03138V7.54033H8.03138ZM8.03138 7.55746V7.54033H7.03138V7.55746H8.03138ZM8.03138 7.57456V7.55746H7.03138V7.57456H8.03138ZM8.03138 7.59162V7.57456H7.03138V7.59162H8.03138ZM8.03138 7.60865V7.59162H7.03138V7.60865H8.03138ZM8.03138 7.62564V7.60865H7.03138V7.62564H8.03138ZM8.03138 7.6426V7.62564H7.03138V7.6426H8.03138ZM8.03138 7.65952V7.6426H7.03138V7.65952H8.03138ZM8.03138 7.67641V7.65952H7.03138V7.67641H8.03138ZM8.03138 7.69327V7.67641H7.03138V7.69327H8.03138ZM8.03138 7.71009V7.69327H7.03138V7.71009H8.03138ZM8.03138 7.72688V7.71009H7.03138V7.72688H8.03138ZM8.03138 7.74363V7.72688H7.03138V7.74363H8.03138ZM8.03138 7.76035V7.74363H7.03138V7.76035H8.03138ZM8.03138 7.77703V7.76035H7.03138V7.77703H8.03138ZM8.03138 7.79368V7.77703H7.03138V7.79368H8.03138ZM8.03138 7.81029V7.79368H7.03138V7.81029H8.03138ZM8.03138 7.82687V7.81029H7.03138V7.82687H8.03138ZM8.03138 7.84341V7.82687H7.03138V7.84341H8.03138ZM8.03138 7.85992V7.84341H7.03138V7.85992H8.03138ZM8.03138 7.87639V7.85992H7.03138V7.87639H8.03138ZM8.03138 7.89283V7.87639H7.03138V7.89283H8.03138ZM8.03138 7.90923V7.89283H7.03138V7.90923H8.03138ZM8.03138 7.92559V7.90923H7.03138V7.92559H8.03138ZM8.03138 7.94192V7.92559H7.03138V7.94192H8.03138ZM8.03138 7.95822V7.94192H7.03138V7.95822H8.03138ZM8.03138 7.97448V7.95822H7.03138V7.97448H8.03138ZM8.03138 7.9907V7.97448H7.03138V7.9907H8.03138ZM8.03138 8.00689V7.9907H7.03138V8.00689H8.03138ZM8.03138 8.02305V8.00689H7.03138V8.02305H8.03138ZM8.03138 8.03916V8.02305H7.03138V8.03916H8.03138ZM8.03138 8.05525V8.03916H7.03138V8.05525H8.03138ZM8.03138 8.07129V8.05525H7.03138V8.07129H8.03138ZM8.03138 8.0873V8.07129H7.03138V8.0873H8.03138ZM8.03138 8.10328V8.0873H7.03138V8.10328H8.03138ZM8.03138 8.11921V8.10328H7.03138V8.11921H8.03138ZM8.03138 8.13512V8.11921H7.03138V8.13512H8.03138ZM8.03138 8.15098V8.13512H7.03138V8.15098H8.03138ZM8.03138 8.16681V8.15098H7.03138V8.16681H8.03138ZM8.03138 8.1826V8.16681H7.03138V8.1826H8.03138ZM8.03138 8.19836V8.1826H7.03138V8.19836H8.03138ZM8.03138 8.21408V8.19836H7.03138V8.21408H8.03138ZM8.03138 8.22976V8.21408H7.03138V8.22976H8.03138ZM8.03138 8.24541V8.22976H7.03138V8.24541H8.03138ZM8.03138 8.26102V8.24541H7.03138V8.26102H8.03138ZM8.03138 8.2766V8.26102H7.03138V8.2766H8.03138ZM8.03138 8.29214V8.2766H7.03138V8.29214H8.03138ZM8.03138 8.30764V8.29214H7.03138V8.30764H8.03138ZM8.03138 8.3231V8.30764H7.03138V8.3231H8.03138ZM8.03138 8.33853V8.3231H7.03138V8.33853H8.03138ZM8.03138 8.35392V8.33853H7.03138V8.35392H8.03138ZM8.03138 8.36927V8.35392H7.03138V8.36927H8.03138ZM8.03138 8.38459V8.36927H7.03138V8.38459H8.03138ZM8.03138 8.39987V8.38459H7.03138V8.39987H8.03138ZM8.03138 8.41511V8.39987H7.03138V8.41511H8.03138ZM8.03138 8.43031V8.41511H7.03138V8.43031H8.03138ZM8.03138 8.44548V8.43031H7.03138V8.44548H8.03138ZM8.03138 8.46061V8.44548H7.03138V8.46061H8.03138ZM8.03138 8.4757V8.46061H7.03138V8.4757H8.03138ZM8.03138 8.49076V8.4757H7.03138V8.49076H8.03138ZM8.03138 8.50578V8.49076H7.03138V8.50578H8.03138ZM8.03138 8.52076V8.50578H7.03138V8.52076H8.03138ZM8.03138 8.5357V8.52076H7.03138V8.5357H8.03138ZM8.03138 8.5506V8.5357H7.03138V8.5506H8.03138ZM8.03138 8.56547V8.5506H7.03138V8.56547H8.03138ZM8.03138 8.5803V8.56547H7.03138V8.5803H8.03138ZM8.03138 8.59509V8.5803H7.03138V8.59509H8.03138ZM8.03138 8.60984V8.59509H7.03138V8.60984H8.03138ZM8.03138 8.62456V8.60984H7.03138V8.62456H8.03138ZM8.03138 8.63924V8.62456H7.03138V8.63924H8.03138ZM8.03138 8.65388V8.63924H7.03138V8.65388H8.03138ZM8.03138 8.66848V8.65388H7.03138V8.66848H8.03138ZM8.03138 8.68304V8.66848H7.03138V8.68304H8.03138ZM8.03138 8.69756V8.68304H7.03138V8.69756H8.03138ZM8.03138 8.71205V8.69756H7.03138V8.71205H8.03138ZM8.03138 8.7265V8.71205H7.03138V8.7265H8.03138ZM8.03138 8.74091V8.7265H7.03138V8.74091H8.03138ZM8.03138 8.75528V8.74091H7.03138V8.75528H8.03138ZM8.03138 8.76961V8.75528H7.03138V8.76961H8.03138ZM8.03138 8.7839V8.76961H7.03138V8.7839H8.03138ZM8.03138 8.79816V8.7839H7.03138V8.79816H8.03138ZM8.03138 8.81238V8.79816H7.03138V8.81238H8.03138ZM8.03138 8.82655V8.81238H7.03138V8.82655H8.03138ZM8.03138 8.84069V8.82655H7.03138V8.84069H8.03138ZM8.03138 8.85479V8.84069H7.03138V8.85479H8.03138ZM8.03138 8.86885V8.85479H7.03138V8.86885H8.03138ZM8.03138 8.88287V8.86885H7.03138V8.88287H8.03138ZM8.03138 8.89686V8.88287H7.03138V8.89686H8.03138ZM8.03138 8.9108V8.89686H7.03138V8.9108H8.03138ZM8.03138 8.9247V8.9108H7.03138V8.9247H8.03138ZM8.03138 8.93857V8.9247H7.03138V8.93857H8.03138ZM8.03138 8.95239V8.93857H7.03138V8.95239H8.03138ZM8.03138 8.96618V8.95239H7.03138V8.96618H8.03138ZM8.03138 8.97992V8.96618H7.03138V8.97992H8.03138ZM8.03138 8.99363V8.97992H7.03138V8.99363H8.03138ZM8.03138 9.0073V8.99363H7.03138V9.0073H8.03138ZM8.03138 9.02093V9.0073H7.03138V9.02093H8.03138ZM8.03138 9.03451V9.02093H7.03138V9.03451H8.03138ZM8.03138 9.04806V9.03451H7.03138V9.04806H8.03138ZM8.03138 9.06157V9.04806H7.03138V9.06157H8.03138ZM8.03138 9.07504V9.06157H7.03138V9.07504H8.03138ZM8.03138 9.08847V9.07504H7.03138V9.08847H8.03138ZM8.03138 9.10186V9.08847H7.03138V9.10186H8.03138ZM8.03138 9.1152V9.10186H7.03138V9.1152H8.03138ZM8.03138 9.12851V9.1152H7.03138V9.12851H8.03138ZM8.03138 9.14178V9.12851H7.03138V9.14178H8.03138ZM8.03138 9.15501V9.14178H7.03138V9.15501H8.03138ZM8.03138 9.1682V9.15501H7.03138V9.1682H8.03138ZM8.03138 9.18134V9.1682H7.03138V9.18134H8.03138ZM8.03138 9.19445V9.18134H7.03138V9.19445H8.03138ZM8.03138 9.20752V9.19445H7.03138V9.20752H8.03138ZM8.03138 9.22054V9.20752H7.03138V9.22054H8.03138ZM8.03138 9.23353V9.22054H7.03138V9.23353H8.03138ZM8.03138 9.24647V9.23353H7.03138V9.24647H8.03138ZM8.03138 9.25938V9.24647H7.03138V9.25938H8.03138ZM8.03138 9.27224V9.25938H7.03138V9.27224H8.03138ZM8.03138 9.28506V9.27224H7.03138V9.28506H8.03138ZM8.03138 9.29784V9.28506H7.03138V9.29784H8.03138ZM8.03138 9.31058V9.29784H7.03138V9.31058H8.03138ZM8.03138 9.32328V9.31058H7.03138V9.32328H8.03138ZM8.03138 9.33594V9.32328H7.03138V9.33594H8.03138ZM8.03138 9.34856V9.33594H7.03138V9.34856H8.03138ZM8.03138 9.36113V9.34856H7.03138V9.36113H8.03138ZM8.03138 9.37367V9.36113H7.03138V9.37367H8.03138ZM8.03138 9.38616V9.37367H7.03138V9.38616H8.03138ZM8.03138 9.39861V9.38616H7.03138V9.39861H8.03138ZM8.03138 9.41103V9.39861H7.03138V9.41103H8.03138ZM8.03138 9.42339V9.41103H7.03138V9.42339H8.03138ZM8.03138 9.43572V9.42339H7.03138V9.43572H8.03138ZM8.03138 9.44801V9.43572H7.03138V9.44801H8.03138ZM8.03138 9.46025V9.44801H7.03138V9.46025H8.03138ZM8.03138 9.47246V9.46025H7.03138V9.47246H8.03138ZM8.03138 9.48462V9.47246H7.03138V9.48462H8.03138ZM8.03138 9.49673V9.48462H7.03138V9.49673H8.03138ZM8.03138 9.50881V9.49673H7.03138V9.50881H8.03138ZM8.03138 9.52085V9.50881H7.03138V9.52085H8.03138ZM8.03138 9.53284V9.52085H7.03138V9.53284H8.03138ZM8.03138 9.54479V9.53284H7.03138V9.54479H8.03138ZM8.03138 9.5567V9.54479H7.03138V9.5567H8.03138ZM8.03138 9.56857V9.5567H7.03138V9.56857H8.03138ZM8.03138 9.58039V9.56857H7.03138V9.58039H8.03138ZM8.03138 9.59217V9.58039H7.03138V9.59217H8.03138ZM8.03138 9.60391V9.59217H7.03138V9.60391H8.03138ZM8.03138 9.61561V9.60391H7.03138V9.61561H8.03138ZM8.03138 9.62727V9.61561H7.03138V9.62727H8.03138ZM8.03138 9.63888V9.62727H7.03138V9.63888H8.03138ZM8.03138 9.65045V9.63888H7.03138V9.65045H8.03138ZM8.03138 9.66197V9.65045H7.03138V9.66197H8.03138ZM8.03138 9.67346V9.66197H7.03138V9.67346H8.03138ZM8.03138 9.6849V9.67346H7.03138V9.6849H8.03138ZM8.03138 9.6963V9.6849H7.03138V9.6963H8.03138ZM8.03138 9.70765V9.6963H7.03138V9.70765H8.03138ZM8.03138 9.71897V9.70765H7.03138V9.71897H8.03138ZM8.03138 9.73024V9.71897H7.03138V9.73024H8.03138ZM8.03138 9.74146V9.73024H7.03138V9.74146H8.03138ZM8.03138 9.74694V9.74146H7.03138V9.74694H8.03138ZM6.41604 8.97533L7.11535 10.0243L7.9474 9.46959L7.24809 8.42063L6.41604 8.97533ZM6.13869 8.5593L6.41604 8.97533L7.24809 8.42063L6.97074 8.0046L6.13869 8.5593ZM6.13869 8.5593L6.13869 8.5593L6.97074 8.0046C6.66439 7.54507 6.04352 7.4209 5.58399 7.72725L6.13869 8.5593ZM5.30664 9.114L6.13869 8.5593L5.58399 7.72725L4.75194 8.28195L5.30664 9.114ZM5.30664 9.114L5.30664 9.114L4.75194 8.28195C4.53127 8.42907 4.37808 8.65782 4.32606 8.91788L5.30664 9.114ZM5.30664 9.114L5.30664 9.114L4.32606 8.91788C4.27405 9.17795 4.32748 9.44803 4.47459 9.6687L5.30664 9.114ZM5.58399 9.53002L5.30664 9.114L4.47459 9.6687L4.75194 10.0847L5.58399 9.53002ZM7.25903 12.0426L5.58399 9.53002L4.75194 10.0847L6.42698 12.5973L7.25903 12.0426ZM7.338 12.3913L7.33794 12.391L6.34808 12.2489C6.29522 12.6172 6.45133 13.0021 6.7833 13.2234L7.338 12.3913ZM7.53117 12.5201L7.338 12.3913L6.7833 13.2234L6.97647 13.3522L7.53117 12.5201ZM7.86134 12.946L7.66985 12.6588L6.8378 13.2135L7.02929 13.5008L7.86134 12.946ZM7.86113 12.9463L7.86134 12.9461L7.02929 13.5007C7.28397 13.8828 7.75498 14.0323 8.17027 13.8973L7.86113 12.9463ZM8.17005 12.9461L8.17027 12.9463L7.86113 13.8973C8.27641 14.0323 8.74743 13.8828 9.0021 13.5008L8.17005 12.9461ZM8.36155 12.6588L8.17005 12.9461L9.0021 13.5008L9.1936 13.2135L8.36155 12.6588ZM8.69339 12.3914L8.50022 12.5201L9.05493 13.3522L9.24809 13.2234L8.69339 12.3914ZM8.69346 12.391L8.69339 12.3913L9.24809 13.2234C9.58007 13.0021 9.73618 12.6172 9.68331 12.2489L8.69346 12.391ZM10.4474 9.53003L8.77236 12.0426L9.60441 12.5973L11.2795 10.0847L10.4474 9.53003ZM10.7248 9.114L10.4474 9.53003L11.2795 10.0847L11.5568 9.6687L10.7248 9.114ZM10.7248 9.114L10.7248 9.114L11.5568 9.6687C11.7039 9.44803 11.7573 9.17795 11.7053 8.91788L10.7248 9.114ZM10.7248 9.114L10.7248 9.114L11.7053 8.91788C11.6533 8.65782 11.5001 8.42907 11.2795 8.28195L10.7248 9.114ZM9.8927 8.5593L10.7248 9.114L11.2795 8.28195L10.4474 7.72725L9.8927 8.5593ZM9.8927 8.5593L9.8927 8.5593L10.4474 7.72725C9.98787 7.4209 9.367 7.54507 9.06065 8.0046L9.8927 8.5593ZM9.61535 8.97532L9.8927 8.5593L9.06065 8.0046L8.7833 8.42063L9.61535 8.97532ZM8.9474 9.97725L9.61535 8.97533L8.7833 8.42063L8.11535 9.42255L8.9474 9.97725ZM8.03138 9.6963V9.6999H9.03138V9.6963H8.03138ZM8.03138 9.6849V9.6963H9.03138V9.6849H8.03138ZM8.03138 9.67346V9.6849H9.03138V9.67346H8.03138ZM8.03138 9.66197V9.67346H9.03138V9.66197H8.03138ZM8.03138 9.65045V9.66197H9.03138V9.65045H8.03138ZM8.03138 9.63888V9.65045H9.03138V9.63888H8.03138ZM8.03138 9.62727V9.63888H9.03138V9.62727H8.03138ZM8.03138 9.61561V9.62727H9.03138V9.61561H8.03138ZM8.03138 9.60391V9.61561H9.03138V9.60391H8.03138ZM8.03138 9.59217V9.60391H9.03138V9.59217H8.03138ZM8.03138 9.58039V9.59217H9.03138V9.58039H8.03138ZM8.03138 9.56857V9.58039H9.03138V9.56857H8.03138ZM8.03138 9.5567V9.56857H9.03138V9.5567H8.03138ZM8.03138 9.54479V9.5567H9.03138V9.54479H8.03138ZM8.03138 9.53284V9.54479H9.03138V9.53284H8.03138ZM8.03138 9.52085V9.53284H9.03138V9.52085H8.03138ZM8.03138 9.50881V9.52085H9.03138V9.50881H8.03138ZM8.03138 9.49673V9.50881H9.03138V9.49673H8.03138ZM8.03138 9.48462V9.49673H9.03138V9.48462H8.03138ZM8.03138 9.47246V9.48462H9.03138V9.47246H8.03138ZM8.03138 9.46025V9.47246H9.03138V9.46025H8.03138ZM8.03138 9.44801V9.46025H9.03138V9.44801H8.03138ZM8.03138 9.43572V9.44801H9.03138V9.43572H8.03138ZM8.03138 9.42339V9.43572H9.03138V9.42339H8.03138ZM8.03138 9.41103V9.42339H9.03138V9.41103H8.03138ZM8.03138 9.39861V9.41103H9.03138V9.39861H8.03138ZM8.03138 9.38616V9.39861H9.03138V9.38616H8.03138ZM8.03138 9.37367V9.38616H9.03138V9.37367H8.03138ZM8.03138 9.36113V9.37367H9.03138V9.36113H8.03138ZM8.03138 9.34856V9.36113H9.03138V9.34856H8.03138ZM8.03138 9.33594V9.34856H9.03138V9.33594H8.03138ZM8.03138 9.32328V9.33594H9.03138V9.32328H8.03138ZM8.03138 9.31058V9.32328H9.03138V9.31058H8.03138ZM8.03138 9.29784V9.31058H9.03138V9.29784H8.03138ZM8.03138 9.28506V9.29784H9.03138V9.28506H8.03138ZM8.03138 9.27224V9.28506H9.03138V9.27224H8.03138ZM8.03138 9.25938V9.27224H9.03138V9.25938H8.03138ZM8.03138 9.24647V9.25938H9.03138V9.24647H8.03138ZM8.03138 9.23353V9.24647H9.03138V9.23353H8.03138ZM8.03138 9.22054V9.23353H9.03138V9.22054H8.03138ZM8.03138 9.20752V9.22054H9.03138V9.20752H8.03138ZM8.03138 9.19445V9.20752H9.03138V9.19445H8.03138ZM8.03138 9.18134V9.19445H9.03138V9.18134H8.03138ZM8.03138 9.1682V9.18134H9.03138V9.1682H8.03138ZM8.03138 9.15501V9.1682H9.03138V9.15501H8.03138ZM8.03138 9.14178V9.15501H9.03138V9.14178H8.03138ZM8.03138 9.12851V9.14178H9.03138V9.12851H8.03138ZM8.03138 9.1152V9.12851H9.03138V9.1152H8.03138ZM8.03138 9.10186V9.1152H9.03138V9.10186H8.03138ZM8.03138 9.08847V9.10186H9.03138V9.08847H8.03138ZM8.03138 9.07504V9.08847H9.03138V9.07504H8.03138ZM8.03138 9.06157V9.07504H9.03138V9.06157H8.03138ZM8.03138 9.04806V9.06157H9.03138V9.04806H8.03138ZM8.03138 9.03451V9.04806H9.03138V9.03451H8.03138ZM8.03138 9.02093V9.03451H9.03138V9.02093H8.03138ZM8.03138 9.0073V9.02093H9.03138V9.0073H8.03138ZM8.03138 8.99363V9.0073H9.03138V8.99363H8.03138ZM8.03138 8.97992V8.99363H9.03138V8.97992H8.03138ZM8.03138 8.96618V8.97992H9.03138V8.96618H8.03138ZM8.03138 8.95239V8.96618H9.03138V8.95239H8.03138ZM8.03138 8.93857V8.95239H9.03138V8.93857H8.03138ZM8.03138 8.9247V8.93857H9.03138V8.9247H8.03138ZM8.03138 8.9108V8.9247H9.03138V8.9108H8.03138ZM8.03138 8.89686V8.9108H9.03138V8.89686H8.03138ZM8.03138 8.88287V8.89686H9.03138V8.88287H8.03138ZM8.03138 8.86885V8.88287H9.03138V8.86885H8.03138ZM8.03138 8.85479V8.86885H9.03138V8.85479H8.03138ZM8.03138 8.84069V8.85479H9.03138V8.84069H8.03138ZM8.03138 8.82655V8.84069H9.03138V8.82655H8.03138ZM8.03138 8.81238V8.82655H9.03138V8.81238H8.03138ZM8.03138 8.79816V8.81238H9.03138V8.79816H8.03138ZM8.03138 8.7839V8.79816H9.03138V8.7839H8.03138ZM8.03138 8.76961V8.7839H9.03138V8.76961H8.03138ZM8.03138 8.75528V8.76961H9.03138V8.75528H8.03138ZM8.03138 8.74091V8.75528H9.03138V8.74091H8.03138ZM8.03138 8.7265V8.74091H9.03138V8.7265H8.03138ZM8.03138 8.71205V8.7265H9.03138V8.71205H8.03138ZM8.03138 8.69756V8.71205H9.03138V8.69756H8.03138ZM8.03138 8.68304V8.69756H9.03138V8.68304H8.03138ZM8.03138 8.66848V8.68304H9.03138V8.66848H8.03138ZM8.03138 8.65388V8.66848H9.03138V8.65388H8.03138ZM8.03138 8.63924V8.65388H9.03138V8.63924H8.03138ZM8.03138 8.62456V8.63924H9.03138V8.62456H8.03138ZM8.03138 8.60984V8.62456H9.03138V8.60984H8.03138ZM8.03138 8.59509V8.60984H9.03138V8.59509H8.03138ZM8.03138 8.5803V8.59509H9.03138V8.5803H8.03138ZM8.03138 8.56547V8.5803H9.03138V8.56547H8.03138ZM8.03138 8.5506V8.56547H9.03138V8.5506H8.03138ZM8.03138 8.5357V8.5506H9.03138V8.5357H8.03138ZM8.03138 8.52076V8.5357H9.03138V8.52076H8.03138ZM8.03138 8.50578V8.52076H9.03138V8.50578H8.03138ZM8.03138 8.49076V8.50578H9.03138V8.49076H8.03138ZM8.03138 8.4757V8.49076H9.03138V8.4757H8.03138ZM8.03138 8.46061V8.4757H9.03138V8.46061H8.03138ZM8.03138 8.44548V8.46061H9.03138V8.44548H8.03138ZM8.03138 8.43031V8.44548H9.03138V8.43031H8.03138ZM8.03138 8.41511V8.43031H9.03138V8.41511H8.03138ZM8.03138 8.39987V8.41511H9.03138V8.39987H8.03138ZM8.03138 8.38459V8.39987H9.03138V8.38459H8.03138ZM8.03138 8.36927V8.38459H9.03138V8.36927H8.03138ZM8.03138 8.35392V8.36927H9.03138V8.35392H8.03138ZM8.03138 8.33853V8.35392H9.03138V8.33853H8.03138ZM8.03138 8.3231V8.33853H9.03138V8.3231H8.03138ZM8.03138 8.30764V8.3231H9.03138V8.30764H8.03138ZM8.03138 8.29214V8.30764H9.03138V8.29214H8.03138ZM8.03138 8.2766V8.29214H9.03138V8.2766H8.03138ZM8.03138 8.26102V8.2766H9.03138V8.26102H8.03138ZM8.03138 8.24541V8.26102H9.03138V8.24541H8.03138ZM8.03138 8.22976V8.24541H9.03138V8.22976H8.03138ZM8.03138 8.21408V8.22976H9.03138V8.21408H8.03138ZM8.03138 8.19836V8.21408H9.03138V8.19836H8.03138ZM8.03138 8.1826V8.19836H9.03138V8.1826H8.03138ZM8.03138 8.16681V8.1826H9.03138V8.16681H8.03138ZM8.03138 8.15098V8.16681H9.03138V8.15098H8.03138ZM8.03138 8.13512V8.15098H9.03138V8.13512H8.03138ZM8.03138 8.11921V8.13512H9.03138V8.11921H8.03138ZM8.03138 8.10328V8.11921H9.03138V8.10328H8.03138ZM8.03138 8.0873V8.10328H9.03138V8.0873H8.03138ZM8.03138 8.07129V8.0873H9.03138V8.07129H8.03138ZM8.03138 8.05525V8.07129H9.03138V8.05525H8.03138ZM8.03138 8.03916V8.05525H9.03138V8.03916H8.03138ZM8.03138 8.02305V8.03916H9.03138V8.02305H8.03138ZM8.03138 8.00689V8.02305H9.03138V8.00689H8.03138ZM8.03138 7.9907V8.00689H9.03138V7.9907H8.03138ZM8.03138 7.97448V7.9907H9.03138V7.97448H8.03138ZM8.03138 7.95822V7.97448H9.03138V7.95822H8.03138ZM8.03138 7.94192V7.95822H9.03138V7.94192H8.03138ZM8.03138 7.92559V7.94192H9.03138V7.92559H8.03138ZM8.03138 7.90923V7.92559H9.03138V7.90923H8.03138ZM8.03138 7.89283V7.90923H9.03138V7.89283H8.03138ZM8.03138 7.87639V7.89283H9.03138V7.87639H8.03138ZM8.03138 7.85992V7.87639H9.03138V7.85992H8.03138ZM8.03138 7.84341V7.85992H9.03138V7.84341H8.03138ZM8.03138 7.82687V7.84341H9.03138V7.82687H8.03138ZM8.03138 7.81029V7.82687H9.03138V7.81029H8.03138ZM8.03138 7.79368V7.81029H9.03138V7.79368H8.03138ZM8.03138 7.77703V7.79368H9.03138V7.77703H8.03138ZM8.03138 7.76035V7.77703H9.03138V7.76035H8.03138ZM8.03138 7.74363V7.76035H9.03138V7.74363H8.03138ZM8.03138 7.72688V7.74363H9.03138V7.72688H8.03138ZM8.03138 7.71009V7.72688H9.03138V7.71009H8.03138ZM8.03138 7.69327V7.71009H9.03138V7.69327H8.03138ZM8.03138 7.67641V7.69327H9.03138V7.67641H8.03138ZM8.03138 7.65952V7.67641H9.03138V7.65952H8.03138ZM8.03138 7.6426V7.65952H9.03138V7.6426H8.03138ZM8.03138 7.62564V7.6426H9.03138V7.62564H8.03138ZM8.03138 7.60865V7.62564H9.03138V7.60865H8.03138ZM8.03138 7.59162V7.60865H9.03138V7.59162H8.03138ZM8.03138 7.57456V7.59162H9.03138V7.57456H8.03138ZM8.03138 7.55746V7.57456H9.03138V7.55746H8.03138ZM8.03138 7.54033V7.55746H9.03138V7.54033H8.03138ZM8.03138 7.52317V7.54033H9.03138V7.52317H8.03138ZM8.03138 7.50597V7.52317H9.03138V7.50597H8.03138ZM8.03138 7.48874V7.50597H9.03138V7.48874H8.03138ZM8.03138 7.47147V7.48874H9.03138V7.47147H8.03138ZM8.03138 7.45417V7.47147H9.03138V7.45417H8.03138ZM8.03138 7.43684V7.45417H9.03138V7.43684H8.03138ZM8.03138 7.41947V7.43684H9.03138V7.41947H8.03138ZM8.03138 7.40207V7.41947H9.03138V7.40207H8.03138ZM8.03138 7.38464V7.40207H9.03138V7.38464H8.03138ZM8.03138 7.36717V7.38464H9.03138V7.36717H8.03138ZM8.03138 7.34967V7.36717H9.03138V7.34967H8.03138ZM8.03138 7.33214V7.34967H9.03138V7.33214H8.03138ZM8.03138 7.31457V7.33214H9.03138V7.31457H8.03138ZM8.03138 7.29697V7.31457H9.03138V7.29697H8.03138ZM8.03138 7.27933V7.29697H9.03138V7.27933H8.03138ZM8.03138 7.26167V7.27933H9.03138V7.26167H8.03138ZM8.03138 7.24397V7.26167H9.03138V7.24397H8.03138ZM8.03138 7.22623V7.24397H9.03138V7.22623H8.03138ZM8.03138 7.20847V7.22623H9.03138V7.20847H8.03138ZM8.03138 7.19067V7.20847H9.03138V7.19067H8.03138ZM8.03138 7.17283V7.19067H9.03138V7.17283H8.03138ZM8.03138 7.15497V7.17283H9.03138V7.15497H8.03138ZM8.03138 7.13707V7.15497H9.03138V7.13707H8.03138ZM8.03138 7.11914V7.13707H9.03138V7.11914H8.03138ZM8.03138 7.10118V7.11914H9.03138V7.10118H8.03138ZM8.03138 7.08318V7.10118H9.03138V7.08318H8.03138ZM8.03138 7.06516V7.08318H9.03138V7.06516H8.03138ZM8.03138 7.04709V7.06516H9.03138V7.04709H8.03138ZM8.03138 7.029V7.04709H9.03138V7.029H8.03138ZM8.03138 7.01088V7.029H9.03138V7.01088H8.03138ZM8.03138 6.99272V7.01088H9.03138V6.99272H8.03138ZM8.03138 6.97453V6.99272H9.03138V6.97453H8.03138ZM8.03138 6.95631V6.97453H9.03138V6.95631H8.03138ZM8.03138 6.93806V6.95631H9.03138V6.93806H8.03138ZM8.03138 6.91977V6.93806H9.03138V6.91977H8.03138ZM8.03138 6.90145V6.91977H9.03138V6.90145H8.03138ZM8.03138 6.8831V6.90145H9.03138V6.8831H8.03138ZM8.03138 6.86472V6.8831H9.03138V6.86472H8.03138ZM8.03138 6.84631V6.86472H9.03138V6.84631H8.03138ZM8.03138 6.82786V6.84631H9.03138V6.82786H8.03138ZM8.03138 6.80939V6.82786H9.03138V6.80939H8.03138ZM8.03138 6.79088V6.80939H9.03138V6.79088H8.03138ZM8.03138 6.77234V6.79088H9.03138V6.77234H8.03138ZM8.03138 6.75377V6.77234H9.03138V6.75377H8.03138ZM8.03138 6.73517V6.75377H9.03138V6.73517H8.03138ZM8.03138 6.71653V6.73517H9.03138V6.71653H8.03138ZM8.03138 6.69787V6.71653H9.03138V6.69787H8.03138ZM8.03138 6.67917V6.69787H9.03138V6.67917H8.03138ZM8.03138 6.66044V6.67917H9.03138V6.66044H8.03138ZM8.03138 6.64168V6.66044H9.03138V6.64168H8.03138ZM8.03138 6.62289V6.64168H9.03138V6.62289H8.03138ZM8.03138 6.60407V6.62289H9.03138V6.60407H8.03138ZM8.03138 6.58522V6.60407H9.03138V6.58522H8.03138ZM8.03138 6.56634V6.58522H9.03138V6.56634H8.03138ZM8.03138 6.54743V6.56634H9.03138V6.54743H8.03138ZM8.03138 6.52848V6.54743H9.03138V6.52848H8.03138ZM8.03138 6.50951V6.52848H9.03138V6.50951H8.03138ZM8.03138 6.4905V6.50951H9.03138V6.4905H8.03138ZM8.03138 6.47146V6.4905H9.03138V6.47146H8.03138ZM8.03138 6.4524V6.47146H9.03138V6.4524H8.03138ZM8.03138 6.4333V6.4524H9.03138V6.4333H8.03138ZM8.03138 6.41417V6.4333H9.03138V6.41417H8.03138ZM8.03138 6.39501V6.41417H9.03138V6.39501H8.03138ZM8.03138 6.37583V6.39501H9.03138V6.37583H8.03138ZM8.03138 6.35661V6.37583H9.03138V6.35661H8.03138ZM8.03138 6.33736V6.35661H9.03138V6.33736H8.03138ZM8.03138 6.31808V6.33736H9.03138V6.31808H8.03138ZM8.03138 6.29877V6.31808H9.03138V6.29877H8.03138ZM8.03138 6.27943V6.29877H9.03138V6.27943H8.03138ZM8.03138 6.26006V6.27943H9.03138V6.26006H8.03138ZM8.03138 6.24067V6.26006H9.03138V6.24067H8.03138ZM8.03138 6.22124V6.24067H9.03138V6.22124H8.03138ZM8.03138 6.20178V6.22124H9.03138V6.20178H8.03138ZM8.03138 6.18229V6.20178H9.03138V6.18229H8.03138ZM8.03138 6.16277V6.18229H9.03138V6.16277H8.03138ZM8.03138 6.14323V6.16277H9.03138V6.14323H8.03138ZM8.03138 6.12365V6.14323H9.03138V6.12365H8.03138ZM8.03138 6.10404V6.12365H9.03138V6.10404H8.03138ZM8.03138 6.08441V6.10404H9.03138V6.08441H8.03138ZM8.03138 6.06474V6.08441H9.03138V6.06474H8.03138ZM8.03138 6.04505V6.06474H9.03138V6.04505H8.03138ZM8.03138 6.02532V6.04505H9.03138V6.02532H8.03138ZM8.03138 6.00557V6.02532H9.03138V6.00557H8.03138ZM8.03138 5.98579V6.00557H9.03138V5.98579H8.03138ZM8.03138 5.96598V5.98579H9.03138V5.96598H8.03138ZM8.03138 5.94614V5.96598H9.03138V5.94614H8.03138ZM8.03138 5.92627V5.94614H9.03138V5.92627H8.03138ZM8.03138 5.90637V5.92627H9.03138V5.90637H8.03138ZM8.03138 5.88645V5.90637H9.03138V5.88645H8.03138ZM8.03138 5.86649V5.88645H9.03138V5.86649H8.03138ZM8.03138 5.84651V5.86649H9.03138V5.84651H8.03138ZM8.03138 5.8265V5.84651H9.03138V5.8265H8.03138ZM8.03138 5.80645V5.8265H9.03138V5.80645H8.03138ZM8.03138 5.78638V5.80645H9.03138V5.78638H8.03138ZM8.03138 5.76629V5.78638H9.03138V5.76629H8.03138ZM8.03138 5.74616V5.76629H9.03138V5.74616H8.03138ZM8.03138 5.72601V5.74616H9.03138V5.72601H8.03138ZM8.03138 5.70582V5.72601H9.03138V5.70582H8.03138ZM8.03138 5.68561V5.70582H9.03138V5.68561H8.03138ZM8.03138 5.66537V5.68561H9.03138V5.66537H8.03138ZM8.03138 5.6451V5.66537H9.03138V5.6451H8.03138ZM8.03138 5.62481V5.6451H9.03138V5.62481H8.03138ZM8.03138 5.60448V5.62481H9.03138V5.60448H8.03138ZM8.03138 5.58413V5.60448H9.03138V5.58413H8.03138ZM8.03138 5.56375V5.58413H9.03138V5.56375H8.03138ZM8.03138 5.54335V5.56375H9.03138V5.54335H8.03138ZM8.03138 5.52291V5.54335H9.03138V5.52291H8.03138ZM8.03138 5.50245V5.52291H9.03138V5.50245H8.03138ZM8.03138 5.48196V5.50245H9.03138V5.48196H8.03138ZM8.03138 5.46144V5.48196H9.03138V5.46144H8.03138ZM8.03138 5.44089V5.46144H9.03138V5.44089H8.03138ZM8.03138 5.42032V5.44089H9.03138V5.42032H8.03138ZM8.03138 5.39972V5.42032H9.03138V5.39972H8.03138ZM8.03138 5.37909V5.39972H9.03138V5.37909H8.03138ZM8.03138 5.35844V5.37909H9.03138V5.35844H8.03138ZM8.03138 5.33776V5.35844H9.03138V5.33776H8.03138ZM8.03138 5.31705V5.33776H9.03138V5.31705H8.03138ZM8.03138 5.29631V5.31705H9.03138V5.29631H8.03138ZM8.03138 5.27555V5.29631H9.03138V5.27555H8.03138ZM8.03138 5.25476V5.27555H9.03138V5.25476H8.03138ZM8.03138 5.23394V5.25476H9.03138V5.23394H8.03138ZM8.03138 5.2131V5.23394H9.03138V5.2131H8.03138ZM8.03138 5.19222V5.2131H9.03138V5.19222H8.03138ZM8.03138 5.17133V5.19222H9.03138V5.17133H8.03138ZM8.03138 5.1504V5.17133H9.03138V5.1504H8.03138ZM8.03138 5.12945V5.1504H9.03138V5.12945H8.03138ZM8.03138 5.10847V5.12945H9.03138V5.10847H8.03138ZM8.03138 5.08747V5.10847H9.03138V5.08747H8.03138ZM8.03138 5.06644V5.08747H9.03138V5.06644H8.03138ZM8.03138 5.04538V5.06644H9.03138V5.04538H8.03138ZM8.03138 5.0243V5.04538H9.03138V5.0243H8.03138ZM8.03138 5.00319V5.0243H9.03138V5.00319H8.03138ZM8.03138 4.98205V5.00319H9.03138V4.98205H8.03138ZM8.03138 4.96094V4.98205H9.03138V4.96094H8.03138ZM8.03138 4.9399V4.96094H9.03138V4.9399H8.03138ZM8.03138 4.91894V4.9399H9.03138V4.91894H8.03138ZM8.03138 4.89805V4.91894H9.03138V4.89805H8.03138ZM8.03138 4.87723V4.89805H9.03138V4.87723H8.03138ZM8.03138 4.85649V4.87723H9.03138V4.85649H8.03138ZM8.03138 4.83582V4.85649H9.03138V4.83582H8.03138ZM8.03138 4.81522V4.83582H9.03138V4.81522H8.03138ZM8.03138 4.7947V4.81522H9.03138V4.7947H8.03138ZM8.03138 4.77425V4.7947H9.03138V4.77425H8.03138ZM8.03138 4.75387V4.77425H9.03138V4.75387H8.03138ZM8.03138 4.73357V4.75387H9.03138V4.73357H8.03138ZM8.03138 4.71333V4.73357H9.03138V4.71333H8.03138ZM8.03138 4.69317V4.71333H9.03138V4.69317H8.03138ZM8.03138 4.67308V4.69317H9.03138V4.67308H8.03138ZM8.03138 4.65307V4.67308H9.03138V4.65307H8.03138ZM8.03138 4.63312V4.65307H9.03138V4.63312H8.03138ZM8.03138 4.61325V4.63312H9.03138V4.61325H8.03138ZM8.03138 4.59345V4.61325H9.03138V4.59345H8.03138ZM8.03138 4.57372V4.59345H9.03138V4.57372H8.03138ZM8.03138 4.55407V4.57372H9.03138V4.55407H8.03138ZM8.03138 4.53448V4.55407H9.03138V4.53448H8.03138ZM8.03138 4.51497V4.53448H9.03138V4.51497H8.03138ZM8.03138 4.49552V4.51497H9.03138V4.49552H8.03138ZM8.03138 4.47615V4.49552H9.03138V4.47615H8.03138ZM8.03138 4.45685V4.47615H9.03138V4.45685H8.03138ZM8.03138 4.43762V4.45685H9.03138V4.43762H8.03138ZM8.03138 4.41846V4.43762H9.03138V4.41846H8.03138ZM8.03138 4.39937V4.41846H9.03138V4.39937H8.03138ZM8.03138 4.38035V4.39937H9.03138V4.38035H8.03138ZM8.03138 4.3614V4.38035H9.03138V4.3614H8.03138ZM8.03138 4.34252V4.3614H9.03138V4.34252H8.03138ZM8.03138 4.32371V4.34252H9.03138V4.32371H8.03138ZM8.03138 4.30498V4.32371H9.03138V4.30498H8.03138ZM8.03138 4.28631V4.30498H9.03138V4.28631H8.03138ZM8.03138 4.26771V4.28631H9.03138V4.26771H8.03138ZM8.03138 4.24918V4.26771H9.03138V4.24918H8.03138ZM8.03138 4.23072V4.24918H9.03138V4.23072H8.03138ZM8.03138 4.21232V4.23072H9.03138V4.21232H8.03138ZM8.03138 4.194V4.21232H9.03138V4.194H8.03138ZM8.03138 4.17575V4.194H9.03138V4.17575H8.03138ZM8.03138 4.15756V4.17575H9.03138V4.15756H8.03138ZM8.03138 4.13945V4.15756H9.03138V4.13945H8.03138ZM8.03138 4.1214V4.13945H9.03138V4.1214H8.03138ZM8.03138 4.10342V4.1214H9.03138V4.10342H8.03138ZM8.03138 4.08551V4.10342H9.03138V4.08551H8.03138ZM8.03138 4.06767V4.08551H9.03138V4.06767H8.03138ZM8.03138 4.04989V4.06767H9.03138V4.04989H8.03138ZM8.03138 4.03219V4.04989H9.03138V4.03219H8.03138ZM8.03138 4.01455V4.03219H9.03138V4.01455H8.03138ZM8.03138 3.99698V4.01455H9.03138V3.99698H8.03138ZM8.03138 3.97947V3.99698H9.03138V3.97947H8.03138ZM8.03138 3.96204V3.97947H9.03138V3.96204H8.03138ZM8.03138 3.94467V3.96204H9.03138V3.94467H8.03138ZM8.03138 3.92737V3.94467H9.03138V3.92737H8.03138ZM8.03138 3.91013V3.92737H9.03138V3.91013H8.03138ZM8.03138 3.89297V3.91013H9.03138V3.89297H8.03138ZM8.03138 3.87587V3.89297H9.03138V3.87587H8.03138ZM8.03138 3.85883V3.87587H9.03138V3.85883H8.03138ZM8.03138 3.84186V3.85883H9.03138V3.84186H8.03138ZM8.03138 3.82496V3.84186H9.03138V3.82496H8.03138ZM8.03138 3.80813V3.82496H9.03138V3.80813H8.03138ZM8.03138 3.79136V3.80813H9.03138V3.79136H8.03138ZM8.03138 3.77466V3.79136H9.03138V3.77466H8.03138ZM8.03138 3.75802V3.77466H9.03138V3.75802H8.03138ZM8.03138 3.74145V3.75802H9.03138V3.74145H8.03138ZM8.03138 3.72494V3.74145H9.03138V3.72494H8.03138ZM8.03138 3.7085V3.72494H9.03138V3.7085H8.03138ZM8.03138 3.69213V3.7085H9.03138V3.69213H8.03138ZM8.03138 3.67582V3.69213H9.03138V3.67582H8.03138ZM8.03138 3.65958V3.67582H9.03138V3.65958H8.03138ZM8.03138 3.6434V3.65958H9.03138V3.6434H8.03138ZM8.03138 3.62728V3.6434H9.03138V3.62728H8.03138ZM8.03138 3.61123V3.62728H9.03138V3.61123H8.03138ZM8.03138 3.59525V3.61123H9.03138V3.59525H8.03138ZM8.03138 3.57933V3.59525H9.03138V3.57933H8.03138ZM8.03138 3.56347V3.57933H9.03138V3.56347H8.03138ZM8.03138 3.54768V3.56347H9.03138V3.54768H8.03138ZM8.03138 3.53195V3.54768H9.03138V3.53195H8.03138ZM8.03138 3.51629V3.53195H9.03138V3.51629H8.03138ZM8.03138 3.50069V3.51629H9.03138V3.50069H8.03138ZM8.03138 3.48515V3.50069H9.03138V3.48515H8.03138ZM8.03138 3.46968V3.48515H9.03138V3.46968H8.03138ZM8.03138 3.45427V3.46968H9.03138V3.45427H8.03138ZM8.03138 3.43892V3.45427H9.03138V3.43892H8.03138ZM8.03138 3.42364V3.43892H9.03138V3.42364H8.03138ZM8.03138 3.40842V3.42364H9.03138V3.40842H8.03138ZM8.03138 3.39327V3.40842H9.03138V3.39327H8.03138ZM8.03138 3.37817V3.39327H9.03138V3.37817H8.03138ZM8.03138 3.36314V3.37817H9.03138V3.36314H8.03138ZM8.03138 3.34817V3.36314H9.03138V3.34817H8.03138ZM8.03138 3.33327V3.34817H9.03138V3.33327H8.03138ZM8.03138 3.31842V3.33327H9.03138V3.31842H8.03138ZM8.03138 3.30364V3.31842H9.03138V3.30364H8.03138ZM8.03138 3.28892V3.30364H9.03138V3.28892H8.03138ZM8.03138 3.27426V3.28892H9.03138V3.27426H8.03138ZM8.03138 3.25967V3.27426H9.03138V3.25967H8.03138ZM8.03138 3.24513V3.25967H9.03138V3.24513H8.03138ZM8.03138 3.23066V3.24513H9.03138V3.23066H8.03138ZM8.03138 3.21625V3.23066H9.03138V3.21625H8.03138ZM8.03138 3.2019V3.21625H9.03138V3.2019H8.03138ZM8.03138 3.18761V3.2019H9.03138V3.18761H8.03138ZM8.03138 3.17338V3.18761H9.03138V3.17338H8.03138ZM8.03138 3.15921V3.17338H9.03138V3.15921H8.03138ZM8.03138 3.14511V3.15921H9.03138V3.14511H8.03138ZM8.03138 3.13106V3.14511H9.03138V3.13106H8.03138ZM8.03138 3.11708V3.13106H9.03138V3.11708H8.03138ZM8.03138 3.10315V3.11708H9.03138V3.10315H8.03138ZM8.03138 3.08929V3.10315H9.03138V3.08929H8.03138ZM8.03138 3.07548V3.08929H9.03138V3.07548H8.03138ZM8.03138 3.06174V3.07548H9.03138V3.06174H8.03138ZM8.03138 3.04805V3.06174H9.03138V3.04805H8.03138ZM8.03138 3.03443V3.04805H9.03138V3.03443H8.03138ZM8.03138 3.02086V3.03443H9.03138V3.02086H8.03138ZM8.03138 3.00736V3.02086H9.03138V3.00736H8.03138ZM8.03138 2.99391V3.00736H9.03138V2.99391H8.03138ZM8.03138 2.98053V2.99391H9.03138V2.98053H8.03138ZM8.03138 2.9672V2.98053H9.03138V2.9672H8.03138ZM8.03138 2.95393V2.9672H9.03138V2.95393H8.03138ZM8.03138 2.94072V2.95393H9.03138V2.94072H8.03138ZM8.03138 2.92757V2.94072H9.03138V2.92757H8.03138ZM8.03138 2.91448V2.92757H9.03138V2.91448H8.03138ZM8.03138 2.90144V2.91448H9.03138V2.90144H8.03138ZM8.03138 2.88847V2.90144H9.03138V2.88847H8.03138ZM8.03138 2.87555V2.88847H9.03138V2.87555H8.03138ZM8.03138 2.86269V2.87555H9.03138V2.86269H8.03138ZM8.03138 2.84989V2.86269H9.03138V2.84989H8.03138ZM8.03138 2.83714V2.84989H9.03138V2.83714H8.03138ZM8.03138 2.82446V2.83714H9.03138V2.82446H8.03138ZM8.03138 2.81183V2.82446H9.03138V2.81183H8.03138ZM8.03138 2.79926V2.81183H9.03138V2.79926H8.03138ZM8.03138 2.78674V2.79926H9.03138V2.78674H8.03138ZM8.03138 2.77429V2.78674H9.03138V2.77429H8.03138ZM8.03138 2.76189V2.77429H9.03138V2.76189H8.03138ZM8.03138 2.74954V2.76189H9.03138V2.74954H8.03138ZM8.03138 2.73726V2.74954H9.03138V2.73726H8.03138ZM8.03138 2.72503V2.73726H9.03138V2.72503H8.03138ZM8.03138 2.71285V2.72503H9.03138V2.71285H8.03138ZM8.03138 2.70074V2.71285H9.03138V2.70074H8.03138ZM8.03138 2.68868V2.70074H9.03138V2.68868H8.03138ZM8.03138 2.67667V2.68868H9.03138V2.67667H8.03138ZM8.03138 2.66473V2.67667H9.03138V2.66473H8.03138ZM8.03138 2.65284V2.66473H9.03138V2.65284H8.03138ZM8.03138 2.641V2.65284H9.03138V2.641H8.03138ZM8.03138 2.62922V2.641H9.03138V2.62922H8.03138ZM8.03138 2.61749V2.62922H9.03138V2.61749H8.03138ZM8.03138 2.60582V2.61749H9.03138V2.60582H8.03138ZM8.03138 2.59421V2.60582H9.03138V2.59421H8.03138ZM8.03138 2.58265V2.59421H9.03138V2.58265H8.03138ZM8.03138 2.57115V2.58265H9.03138V2.57115H8.03138ZM8.03138 2.5597V2.57115H9.03138V2.5597H8.03138ZM8.03138 2.5483V2.5597H9.03138V2.5483H8.03138ZM8.03138 2.53696V2.5483H9.03138V2.53696H8.03138ZM8.03138 2.52568V2.53696H9.03138V2.52568H8.03138ZM8.03138 2.51445V2.52568H9.03138V2.51445H8.03138ZM8.03138 2.50327V2.51445H9.03138V2.50327H8.03138ZM8.03138 2.49215V2.50327H9.03138V2.49215H8.03138ZM8.03138 2.48108V2.49215H9.03138V2.48108H8.03138ZM8.03138 2.47006V2.48108H9.03138V2.47006H8.03138ZM8.03138 2.4591V2.47006H9.03138V2.4591H8.03138ZM8.03138 2.44819V2.4591H9.03138V2.44819H8.03138ZM8.03138 2.43734V2.44819H9.03138V2.43734H8.03138ZM8.03138 2.42654V2.43734H9.03138V2.42654H8.03138ZM8.03138 2.41579V2.42654H9.03138V2.41579H8.03138ZM8.03138 2.4051V2.41579H9.03138V2.4051H8.03138ZM8.03138 2.39446V2.4051H9.03138V2.39446H8.03138ZM8.03138 2.38387V2.39446H9.03138V2.38387H8.03138ZM8.03138 2.37333V2.38387H9.03138V2.37333H8.03138ZM8.03138 2.36285V2.37333H9.03138V2.36285H8.03138ZM8.03138 2.35242V2.36285H9.03138V2.35242H8.03138ZM8.03138 2.34204V2.35242H9.03138V2.34204H8.03138ZM8.03138 2.33171V2.34204H9.03138V2.33171H8.03138ZM8.03138 2.32144V2.33171H9.03138V2.32144H8.03138ZM8.03138 2.31121V2.32144H9.03138V2.31121H8.03138ZM8.03138 2.30104V2.31121H9.03138V2.30104H8.03138ZM8.03138 2.29092V2.30104H9.03138V2.29092H8.03138ZM8.03138 2.28086V2.29092H9.03138V2.28086H8.03138ZM8.03138 2.27084V2.28086H9.03138V2.27084H8.03138ZM8.03138 2.26088V2.27084H9.03138V2.26088H8.03138ZM8.03138 2.25096V2.26088H9.03138V2.25096H8.03138ZM8.03138 2.2411V2.25096H9.03138V2.2411H8.03138ZM8.03138 2.23129V2.2411H9.03138V2.23129H8.03138ZM8.03138 2.22153V2.23129H9.03138V2.22153H8.03138ZM8.03138 2.21182V2.22153H9.03138V2.21182H8.03138ZM8.03138 2.20216V2.21182H9.03138V2.20216H8.03138ZM8.03138 2.19255V2.20216H9.03138V2.19255H8.03138ZM8.03138 2.18299V2.19255H9.03138V2.18299H8.03138ZM8.03138 2.17348V2.18299H9.03138V2.17348H8.03138ZM8.03138 2.16402V2.17348H9.03138V2.16402H8.03138ZM8.03138 2.15461V2.16402H9.03138V2.15461H8.03138ZM8.03138 2.14525V2.15461H9.03138V2.14525H8.03138ZM8.03138 2.13594V2.14525H9.03138V2.13594H8.03138ZM8.03138 2.12668V2.13594H9.03138V2.12668H8.03138ZM8.03138 2.11747V2.12668H9.03138V2.11747H8.03138ZM8.03138 2.10831V2.11747H9.03138V2.10831H8.03138ZM8.03138 2.0992V2.10831H9.03138V2.0992H8.03138ZM8.03138 2.09014V2.0992H9.03138V2.09014H8.03138ZM8.03138 2.08112V2.09014H9.03138V2.08112H8.03138ZM8.03138 2.07216V2.08112H9.03138V2.07216H8.03138ZM8.03138 2.06324V2.07216H9.03138V2.06324H8.03138ZM8.03138 2.05437V2.06324H9.03138V2.05437H8.03138ZM8.03138 2.04555V2.05437H9.03138V2.04555H8.03138ZM8.03138 2.03678V2.04555H9.03138V2.03678H8.03138ZM8.03138 2.02805V2.03678H9.03138V2.02805H8.03138ZM8.03138 2.01938V2.02805H9.03138V2.01938H8.03138ZM8.03138 2.01075V2.01938H9.03138V2.01075H8.03138ZM8.03138 2.00217V2.01075H9.03138V2.00217H8.03138ZM8.03138 1.99364V2.00217H9.03138V1.99364H8.03138ZM8.03138 1.98515V1.99364H9.03138V1.98515H8.03138ZM8.03138 1.97671V1.98515H9.03138V1.97671H8.03138ZM8.03138 1.96832V1.97671H9.03138V1.96832H8.03138ZM8.03138 1.95998V1.96832H9.03138V1.95998H8.03138ZM8.03138 1.95168V1.95998H9.03138V1.95168H8.03138ZM8.03138 1.94343V1.95168H9.03138V1.94343H8.03138ZM8.03138 1.93523V1.94343H9.03138V1.93523H8.03138ZM8.03138 1.92707V1.93523H9.03138V1.92707H8.03138ZM8.03138 1.91896V1.92707H9.03138V1.91896H8.03138ZM8.03138 1.9109V1.91896H9.03138V1.9109H8.03138ZM8.03138 1.90288V1.9109H9.03138V1.90288H8.03138ZM8.03138 1.89491V1.90288H9.03138V1.89491H8.03138ZM8.03138 1.88698V1.89491H9.03138V1.88698H8.03138ZM8.03138 1.8791V1.88698H9.03138V1.8791H8.03138ZM8.03138 1.87127V1.8791H9.03138V1.87127H8.03138ZM8.03138 1.86348V1.87127H9.03138V1.86348H8.03138ZM8.03138 1.85573V1.86348H9.03138V1.85573H8.03138ZM8.03138 1.84803V1.85573H9.03138V1.84803H8.03138ZM8.03138 1.84038V1.84803H9.03138V1.84038H8.03138ZM8.03138 1.83277V1.84038H9.03138V1.83277H8.03138ZM8.03138 1.82521V1.83277H9.03138V1.82521H8.03138ZM8.03138 1.81769V1.82521H9.03138V1.81769H8.03138ZM8.03138 1.81022V1.81769H9.03138V1.81022H8.03138ZM8.03138 1.80279V1.81022H9.03138V1.80279H8.03138ZM8.03138 1.7954V1.80279H9.03138V1.7954H8.03138ZM8.03138 1.78806V1.7954H9.03138V1.78806H8.03138ZM8.03138 1.78077V1.78806H9.03138V1.78077H8.03138ZM8.03138 1.77351V1.78077H9.03138V1.77351H8.03138ZM8.03138 1.7663V1.77351H9.03138V1.7663H8.03138ZM8.03138 1.75914V1.7663H9.03138V1.75914H8.03138ZM8.03138 1.75202V1.75914H9.03138V1.75202H8.03138ZM8.03138 1.74494V1.75202H9.03138V1.74494H8.03138ZM8.03138 1.7379V1.74494H9.03138V1.7379H8.03138ZM8.03138 1.73091V1.7379H9.03138V1.73091H8.03138ZM8.03138 1.72397V1.73091H9.03138V1.72397H8.03138ZM8.03138 1.71706V1.72397H9.03138V1.71706H8.03138ZM8.03138 1.7102V1.71706H9.03138V1.7102H8.03138ZM8.03138 1.70338V1.7102H9.03138V1.70338H8.03138ZM8.03138 1.6966V1.70338H9.03138V1.6966H8.03138ZM8.03138 1.68987V1.6966H9.03138V1.68987H8.03138ZM8.03138 1.68317V1.68987H9.03138V1.68317H8.03138ZM8.03138 1.67652V1.68317H9.03138V1.67652H8.03138ZM8.03138 1.66992V1.67652H9.03138V1.66992H8.03138ZM8.03138 1.66335V1.66992H9.03138V1.66335H8.03138ZM8.03138 1.65682V1.66335H9.03138V1.65682H8.03138ZM8.03138 1.65034V1.65682H9.03138V1.65034H8.03138ZM8.03138 1.6439V1.65034H9.03138V1.6439H8.03138ZM8.03138 1.6375V1.6439H9.03138V1.6375H8.03138ZM8.03138 1.63114V1.6375H9.03138V1.63114H8.03138ZM8.03138 1.62483V1.63114H9.03138V1.62483H8.03138ZM8.03138 1.61855V1.62483H9.03138V1.61855H8.03138ZM8.03138 1.61231V1.61855H9.03138V1.61231H8.03138ZM8.03138 1.60612V1.61231H9.03138V1.60612H8.03138ZM8.03138 1.59997V1.60612H9.03138V1.59997H8.03138ZM8.03138 1.59385V1.59997H9.03138V1.59385H8.03138ZM8.03138 1.58778V1.59385H9.03138V1.58778H8.03138ZM8.03138 1.58175V1.58778H9.03138V1.58175H8.03138ZM8.03138 1.57576V1.58175H9.03138V1.57576H8.03138ZM8.03138 1.5698V1.57576H9.03138V1.5698H8.03138ZM8.03138 1.56389V1.5698H9.03138V1.56389H8.03138ZM8.03138 1.55802V1.56389H9.03138V1.55802H8.03138ZM8.03138 1.55219V1.55802H9.03138V1.55219H8.03138ZM8.03138 1.54639V1.55219H9.03138V1.54639H8.03138ZM8.03138 1.54064V1.54639H9.03138V1.54064H8.03138ZM8.03138 1.53492V1.54064H9.03138V1.53492H8.03138ZM8.03138 1.52925V1.53492H9.03138V1.52925H8.03138ZM8.03138 1.52361V1.52925H9.03138V1.52361H8.03138ZM8.03138 1.51801V1.52361H9.03138V1.51801H8.03138ZM8.03138 1.51245V1.51801H9.03138V1.51245H8.03138ZM8.03138 1.50693V1.51245H9.03138V1.50693H8.03138ZM8.03138 1.50145V1.50693H9.03138V1.50145H8.03138ZM8.03138 1.49601V1.50145H9.03138V1.49601H8.03138ZM8.03138 1.4906V1.49601H9.03138V1.4906H8.03138ZM8.03138 1.48523V1.4906H9.03138V1.48523H8.03138ZM8.03138 1.47991V1.48523H9.03138V1.47991H8.03138ZM8.03138 1.47461V1.47991H9.03138V1.47461H8.03138ZM8.03138 1.46936V1.47461H9.03138V1.46936H8.03138ZM8.03138 1.46414V1.46936H9.03138V1.46414H8.03138ZM8.03138 1.45897V1.46414H9.03138V1.45897H8.03138ZM8.03138 1.45382V1.45897H9.03138V1.45382H8.03138ZM8.03138 1.44872V1.45382H9.03138V1.44872H8.03138ZM8.03138 1.44365V1.44872H9.03138V1.44365H8.03138ZM8.03138 1.43862V1.44365H9.03138V1.43862H8.03138ZM8.03138 1.43363V1.43862H9.03138V1.43363H8.03138ZM8.03138 1.42867V1.43363H9.03138V1.42867H8.03138ZM8.03138 1.42375V1.42867H9.03138V1.42375H8.03138ZM8.03138 1.41887V1.42375H9.03138V1.41887H8.03138ZM8.03138 1.41402V1.41887H9.03138V1.41402H8.03138ZM8.03138 1.40921V1.41402H9.03138V1.40921H8.03138ZM8.03138 1.40444V1.40921H9.03138V1.40444H8.03138ZM8.03138 1.3997V1.40444H9.03138V1.3997H8.03138ZM8.03138 1.39499V1.3997H9.03138V1.39499H8.03138ZM8.03138 1.39033V1.39499H9.03138V1.39033H8.03138ZM8.03138 1.38569V1.39033H9.03138V1.38569H8.03138ZM8.03138 1.3811V1.38569H9.03138V1.3811H8.03138ZM8.03138 1.37654V1.3811H9.03138V1.37654H8.03138ZM8.03138 1.37201V1.37654H9.03138V1.37201H8.03138ZM8.03138 1.36752V1.37201H9.03138V1.36752H8.03138ZM8.03138 1.36306V1.36752H9.03138V1.36306H8.03138ZM8.03138 1.35864V1.36306H9.03138V1.35864H8.03138ZM8.03138 1.35425V1.35864H9.03138V1.35425H8.03138ZM8.03138 1.3499V1.35425H9.03138V1.3499H8.03138ZM8.03138 1.34558V1.3499H9.03138V1.34558H8.03138ZM8.03138 1.3413V1.34558H9.03138V1.3413H8.03138ZM8.03138 1.33705V1.3413H9.03138V1.33705H8.03138ZM8.03138 1.33284V1.33705H9.03138V1.33284H8.03138ZM8.03138 1.32865V1.33284H9.03138V1.32865H8.03138ZM8.03138 1.32451V1.32865H9.03138V1.32451H8.03138ZM8.03138 1.32039V1.32451H9.03138V1.32039H8.03138ZM8.03138 1.31631V1.32039H9.03138V1.31631H8.03138ZM8.03138 1.31226V1.31631H9.03138V1.31226H8.03138ZM8.03138 1.30825V1.31226H9.03138V1.30825H8.03138ZM8.03138 1.30427V1.30825H9.03138V1.30427H8.03138ZM8.03138 1.30032V1.30427H9.03138V1.30032H8.03138ZM8.03138 1.2964V1.30032H9.03138V1.2964H8.03138ZM8.03138 1.29252V1.2964H9.03138V1.29252H8.03138ZM8.03138 1.28867V1.29252H9.03138V1.28867H8.03138ZM8.03138 1.28486V1.28867H9.03138V1.28486H8.03138ZM8.03138 1.28107V1.28486H9.03138V1.28107H8.03138ZM8.03138 1.27732V1.28107H9.03138V1.27732H8.03138ZM8.03138 1.2736V1.27732H9.03138V1.2736H8.03138ZM8.03138 1.26991V1.2736H9.03138V1.26991H8.03138ZM8.03138 1.26625V1.26991H9.03138V1.26625H8.03138ZM8.03138 1.26263V1.26625H9.03138V1.26263H8.03138ZM8.03138 1.25903V1.26263H9.03138V1.25903H8.03138ZM8.03138 1.25547V1.25903H9.03138V1.25547H8.03138ZM8.03138 1.25194V1.25547H9.03138V1.25194H8.03138ZM8.03138 1.24844V1.25194H9.03138V1.24844H8.03138ZM8.03138 1.24497V1.24844H9.03138V1.24497H8.03138ZM8.03138 1.24153V1.24497H9.03138V1.24153H8.03138ZM8.03138 1.23813V1.24153H9.03138V1.23813H8.03138ZM8.03138 1.23475V1.23813H9.03138V1.23475H8.03138ZM8.03138 1.2314V1.23475H9.03138V1.2314H8.03138ZM8.03138 1.22809V1.2314H9.03138V1.22809H8.03138ZM8.03138 1.2248V1.22809H9.03138V1.2248H8.03138ZM8.03138 1.22155V1.2248H9.03138V1.22155H8.03138ZM8.03138 1.21832V1.22155H9.03138V1.21832H8.03138ZM8.03138 1.21513V1.21832H9.03138V1.21513H8.03138ZM8.03138 1.21196V1.21513H9.03138V1.21196H8.03138ZM8.03138 1.20883V1.21196H9.03138V1.20883H8.03138ZM8.03138 1.20572V1.20883H9.03138V1.20572H8.03138ZM8.03138 1.20265V1.20572H9.03138V1.20265H8.03138ZM8.03138 1.1996V1.20265H9.03138V1.1996H8.03138ZM8.03138 1.19658V1.1996H9.03138V1.19658H8.03138ZM8.03138 1.19359V1.19658H9.03138V1.19359H8.03138ZM8.03138 1.19063V1.19359H9.03138V1.19063H8.03138ZM8.03138 1.1877V1.19063H9.03138V1.1877H8.03138ZM8.03138 1.1848V1.1877H9.03138V1.1848H8.03138ZM8.03138 1.18192V1.1848H9.03138V1.18192H8.03138ZM8.03138 1.17908V1.18192H9.03138V1.17908H8.03138ZM8.03138 1.17626V1.17908H9.03138V1.17626H8.03138ZM8.03138 1.17347V1.17626H9.03138V1.17347H8.03138ZM8.03138 1.17071V1.17347H9.03138V1.17071H8.03138ZM8.03138 1.16797V1.17071H9.03138V1.16797H8.03138ZM8.03138 1.16527V1.16797H9.03138V1.16527H8.03138ZM8.03138 1.16259V1.16527H9.03138V1.16259H8.03138ZM8.03138 1.15994V1.16259H9.03138V1.15994H8.03138ZM8.03138 1.15732V1.15994H9.03138V1.15732H8.03138ZM8.03138 1.15472V1.15732H9.03138V1.15472H8.03138ZM8.03138 1.15215V1.15472H9.03138V1.15215H8.03138ZM8.03138 1.14961V1.15215H9.03138V1.14961H8.03138ZM8.03138 1.14709V1.14961H9.03138V1.14709H8.03138ZM8.03138 1.1446V1.14709H9.03138V1.1446H8.03138ZM8.03138 1.14214V1.1446H9.03138V1.14214H8.03138ZM8.03138 1.13971V1.14214H9.03138V1.13971H8.03138ZM8.03138 1.1373V1.13971H9.03138V1.1373H8.03138ZM8.03138 1.13491V1.1373H9.03138V1.13491H8.03138ZM8.03138 1.13256V1.13491H9.03138V1.13256H8.03138ZM8.03138 1.13023V1.13256H9.03138V1.13023H8.03138ZM8.03138 1.12792V1.13023H9.03138V1.12792H8.03138ZM8.03138 1.12564V1.12792H9.03138V1.12564H8.03138ZM8.03138 1.12339V1.12564H9.03138V1.12339H8.03138ZM8.03138 1.12116V1.12339H9.03138V1.12116H8.03138ZM8.03138 1.11896V1.12116H9.03138V1.11896H8.03138ZM8.03138 1.11678V1.11896H9.03138V1.11678H8.03138ZM8.03138 1.11462V1.11678H9.03138V1.11462H8.03138ZM8.03138 1.1125V1.11462H9.03138V1.1125H8.03138ZM8.03138 1.11039V1.1125H9.03138V1.11039H8.03138ZM8.03138 1.10831V1.11039H9.03138V1.10831H8.03138ZM8.03138 1.10626V1.10831H9.03138V1.10626H8.03138ZM8.03138 1.10423V1.10626H9.03138V1.10423H8.03138ZM8.03138 1.10222V1.10423H9.03138V1.10222H8.03138ZM8.03138 1.10024V1.10222H9.03138V1.10024H8.03138ZM8.03138 1.09829V1.10024H9.03138V1.09829H8.03138ZM8.03138 1.09635V1.09829H9.03138V1.09635H8.03138ZM8.03138 1.09444V1.09635H9.03138V1.09444H8.03138ZM8.03138 1.09256V1.09444H9.03138V1.09256H8.03138ZM8.03138 1.09069V1.09256H9.03138V1.09069H8.03138ZM8.03138 1.08885V1.09069H9.03138V1.08885H8.03138ZM8.03138 1.08704V1.08885H9.03138V1.08704H8.03138ZM8.03138 1.08525V1.08704H9.03138V1.08525H8.03138ZM8.03138 1.08348V1.08525H9.03138V1.08348H8.03138ZM8.03138 1.08173V1.08348H9.03138V1.08173H8.03138ZM8.03138 1.08V1.08173H9.03138V1.08H8.03138ZM8.03138 1.0783V1.08H9.03138V1.0783H8.03138ZM8.03138 1.07662V1.0783H9.03138V1.07662H8.03138ZM8.03138 1.07497V1.07662H9.03138V1.07497H8.03138ZM8.03138 1.07333V1.07497H9.03138V1.07333H8.03138ZM8.03138 1.07172V1.07333H9.03138V1.07172H8.03138ZM8.03138 1.07013V1.07172H9.03138V1.07013H8.03138ZM8.03138 1.06856V1.07013H9.03138V1.06856H8.03138ZM8.03138 1.06701V1.06856H9.03138V1.06701H8.03138ZM8.03138 1.06549V1.06701H9.03138V1.06549H8.03138ZM8.03138 1.06399V1.06549H9.03138V1.06399H8.03138ZM8.03138 1.0625V1.06399H9.03138V1.0625H8.03138ZM8.03138 1.06104V1.0625H9.03138V1.06104H8.03138ZM8.03138 1.0596V1.06104H9.03138V1.0596H8.03138ZM8.03138 1.05818V1.0596H9.03138V1.05818H8.03138ZM8.03138 1.05678V1.05818H9.03138V1.05678H8.03138ZM8.03138 1.05541V1.05678H9.03138V1.05541H8.03138ZM8.03138 1.05405V1.05541H9.03138V1.05405H8.03138ZM8.03138 1.05271V1.05405H9.03138V1.05271H8.03138ZM8.03138 1.0514V1.05271H9.03138V1.0514H8.03138ZM8.03138 1.0501V1.0514H9.03138V1.0501H8.03138ZM8.03138 1.04882V1.0501H9.03138V1.04882H8.03138ZM8.03138 1.04757V1.04882H9.03138V1.04757H8.03138ZM8.03138 1.04633V1.04757H9.03138V1.04633H8.03138ZM8.03138 1.04511V1.04633H9.03138V1.04511H8.03138ZM8.03138 1.04392V1.04511H9.03138V1.04392H8.03138ZM8.03138 1.04274V1.04392H9.03138V1.04274H8.03138ZM8.03138 1.04158V1.04274H9.03138V1.04158H8.03138ZM8.03138 1.04044V1.04158H9.03138V1.04044H8.03138ZM8.03138 1.03932V1.04044H9.03138V1.03932H8.03138ZM8.03138 1.03822V1.03932H9.03138V1.03822H8.03138ZM8.03138 1.03714V1.03822H9.03138V1.03714H8.03138ZM8.03138 1.03607V1.03714H9.03138V1.03607H8.03138ZM8.03138 1.03503V1.03607H9.03138V1.03503H8.03138ZM8.03138 1.034V1.03503H9.03138V1.034H8.03138ZM8.03138 1.03299V1.034H9.03138V1.03299H8.03138ZM8.03138 1.032V1.03299H9.03138V1.032H8.03138ZM8.03138 1.03103V1.032H9.03138V1.03103H8.03138ZM8.03138 1.03007V1.03103H9.03138V1.03007H8.03138ZM8.03138 1.02914V1.03007H9.03138V1.02914H8.03138ZM8.03138 1.02822V1.02914H9.03138V1.02822H8.03138ZM8.03138 1.02731V1.02822H9.03138V1.02731H8.03138ZM8.03138 1.02643V1.02731H9.03138V1.02643H8.03138ZM8.03138 1.02556V1.02643H9.03138V1.02556H8.03138ZM8.03138 1.02471V1.02556H9.03138V1.02471H8.03138ZM8.03138 1.02388V1.02471H9.03138V1.02388H8.03138ZM8.03138 1.02306V1.02388H9.03138V1.02306H8.03138ZM8.03138 1.02226V1.02306H9.03138V1.02226H8.03138ZM8.03138 1.02148V1.02226H9.03138V1.02148H8.03138ZM8.03138 1.02071V1.02148H9.03138V1.02071H8.03138ZM8.03138 1.01996V1.02071H9.03138V1.01996H8.03138ZM8.03138 1.01923V1.01996H9.03138V1.01923H8.03138ZM8.03138 1.01851V1.01923H9.03138V1.01851H8.03138ZM8.03138 1.01781V1.01851H9.03138V1.01781H8.03138ZM8.03138 1.01712V1.01781H9.03138V1.01712H8.03138ZM8.03138 1.01645V1.01712H9.03138V1.01645H8.03138ZM8.03138 1.0158V1.01645H9.03138V1.0158H8.03138ZM8.03138 1.01516V1.0158H9.03138V1.01516H8.03138ZM8.03138 1.01453V1.01516H9.03138V1.01453H8.03138ZM8.03138 1.01392V1.01453H9.03138V1.01392H8.03138ZM8.03138 1.01333V1.01392H9.03138V1.01333H8.03138ZM8.03138 1.01275V1.01333H9.03138V1.01275H8.03138ZM8.03138 1.01219V1.01275H9.03138V1.01219H8.03138ZM8.03138 1.01164V1.01219H9.03138V1.01164H8.03138ZM8.03138 1.0111V1.01164H9.03138V1.0111H8.03138ZM8.03138 1.01058V1.0111H9.03138V1.01058H8.03138ZM8.03138 1.01007V1.01058H9.03138V1.01007H8.03138ZM8.03138 1.00958V1.01007H9.03138V1.00958H8.03138ZM8.03138 1.0091V1.00958H9.03138V1.0091H8.03138ZM8.03138 1.00864V1.0091H9.03138V1.00864H8.03138ZM8.03138 1.00819V1.00864H9.03138V1.00819H8.03138ZM8.03138 1.00775V1.00819H9.03138V1.00775H8.03138ZM8.03138 1.00733V1.00775H9.03138V1.00733H8.03138ZM8.03138 1.00692V1.00733H9.03138V1.00692H8.03138ZM8.03138 1.00652V1.00692H9.03138V1.00652H8.03138ZM8.03138 1.00614V1.00652H9.03138V1.00614H8.03138ZM8.03138 1.00577V1.00614H9.03138V1.00577H8.03138ZM8.03138 1.00541V1.00577H9.03138V1.00541H8.03138ZM8.03138 1.00507V1.00541H9.03138V1.00507H8.03138ZM8.03138 1.00473V1.00507H9.03138V1.00473H8.03138ZM8.03138 1.00441V1.00473H9.03138V1.00441H8.03138ZM8.03138 1.00411V1.00441H9.03138V1.00411H8.03138ZM8.03138 1.00381V1.00411H9.03138V1.00381H8.03138ZM8.03138 1.00353V1.00381H9.03138V1.00353H8.03138ZM8.03138 1.00326V1.00353H9.03138V1.00326H8.03138ZM8.03138 1.003V1.00326H9.03138V1.003H8.03138ZM8.03138 1.00275V1.003H9.03138V1.00275H8.03138ZM8.03138 1.00252V1.00275H9.03138V1.00252H8.03138ZM8.03138 1.00229V1.00252H9.03138V1.00229H8.03138ZM8.03138 1.00208V1.00229H9.03138V1.00208H8.03138ZM8.03138 1.00188V1.00208H9.03138V1.00188H8.03138ZM8.03138 1.00169V1.00188H9.03138V1.00169H8.03138ZM8.03138 1.00151V1.00169H9.03138V1.00151H8.03138ZM8.03138 1.00134V1.00151H9.03138V1.00134H8.03138ZM8.03138 1.00118V1.00134H9.03138V1.00118H8.03138ZM8.03138 1.00103V1.00118H9.03138V1.00103H8.03138ZM8.03138 1.00089V1.00103H9.03138V1.00089H8.03138ZM8.03138 1.00077V1.00089H9.03138V1.00077H8.03138ZM8.03138 1.00065V1.00077H9.03138V1.00065H8.03138ZM8.03138 1.00054V1.00065H9.03138V1.00054H8.03138ZM8.03138 1.00045V1.00054H9.03138V1.00045H8.03138ZM8.03138 1.00036V1.00045H9.03138V1.00036H8.03138ZM8.03138 1.00028V1.00036H9.03138V1.00028H8.03138ZM8.03138 1.00022V1.00028H9.03138V1.00022H8.03138ZM8.03138 1.00016V1.00022H9.03138V1.00016H8.03138ZM8.03138 1.00011V1.00016H9.03138V1.00011H8.03138ZM8.03138 1.00007V1.00011H9.03138V1.00007H8.03138ZM8.03138 1.00004V1.00007H9.03138V1.00004H8.03138ZM8.03138 1.00002V1.00004H9.03138V1.00002H8.03138ZM8.03138 1V1.00002H9.03138V1H8.03138ZM8.03137 1.5L8.53137 1.5L8.53138 0.500004L8.03138 0.5L8.03137 1.5ZM8.53138 0.5H8.03138V1.5H8.53138V0.5ZM8.39074 12.0582C8.36437 11.9401 8.31631 11.8257 8.24682 11.7215L7.41477 12.2762L7.41477 12.2761L8.39074 12.0582ZM8.41702 11.9791C8.3539 11.8942 8.27766 11.8198 8.19113 11.7587L7.61438 12.5756L7.61437 12.5756L8.41702 11.9791ZM7.84027 11.7587C7.75374 11.8198 7.6775 11.8942 7.61437 11.9791L8.41702 12.5756L8.41702 12.5756L7.84027 11.7587ZM7.78457 11.7215C7.71508 11.8257 7.66703 11.9401 7.64066 12.0582L8.61663 12.2761L8.61662 12.2762L7.78457 11.7215ZM8.0157 11.3748L7.78457 11.7215L8.61662 12.2762L8.84775 11.9295L8.0157 11.3748ZM8.0157 12.3748C8.35005 12.3748 8.66228 12.2077 8.84775 11.9295L8.0157 11.3748L8.0157 11.3748V12.3748ZM7.18365 11.9295C7.36911 12.2077 7.68134 12.3748 8.0157 12.3748V11.3748L8.0157 11.3748L7.18365 11.9295ZM8.24682 11.7215L8.0157 11.3748L7.18365 11.9295L7.41477 12.2762L8.24682 11.7215Z" fill="#4F5D70"/>
</g>
<defs>
<filter id="filter0_d" x="0.306641" y="0" width="15.4181" height="21.946" filterUnits="userSpaceOnUse" color-interpolation-filters="sRGB">
<feFlood flood-opacity="0" result="BackgroundImageFix"/>
<feColorMatrix in="SourceAlpha" type="matrix" values="0 0 0 0 0 0 0 0 0 0 0 0 0 0 0 0 0 0 127 0"/>
<feOffset dy="4"/>
<feGaussianBlur stdDeviation="2"/>
<feColorMatrix type="matrix" values="0 0 0 0 0 0 0 0 0 0 0 0 0 0 0 0 0 0 0.25 0"/>
<feBlend mode="normal" in2="BackgroundImageFix" result="effect1_dropShadow"/>
<feBlend mode="normal" in="SourceGraphic" in2="effect1_dropShadow" result="shape"/>
</filter>
</defs>
</svg>
