<svg width="32" height="32" viewBox="0 0 32 32" fill="none" xmlns="http://www.w3.org/2000/svg">
<path d="M23 27C22.3277 27.0089 21.6679 26.8182 21.104 26.452C20.6445 26.1444 20.5214 25.5225 20.829 25.063C21.1366 24.6035 21.7585 24.4804 22.218 24.788C22.4526 24.9346 22.7255 25.0084 23.002 25C23.614 25 24.002 24.672 24.002 24.5C24.002 24.328 23.614 24 23.002 24C21.4872 24.1243 20.1519 23.0123 20 21.5C20.1519 19.9886 21.4859 18.8769 23 19C23.6723 18.9912 24.3321 19.1819 24.896 19.548C25.1932 19.747 25.3617 20.0895 25.338 20.4464C25.3143 20.8033 25.102 21.1205 24.781 21.2784C24.4601 21.4363 24.0792 21.411 23.782 21.212C23.5479 21.0658 23.2759 20.9921 23 21C22.388 21 22 21.328 22 21.5C22 21.672 22.388 22 23 22C24.5141 21.8769 25.8481 22.9886 26 24.5C25.8481 26.0115 24.5141 27.1232 23 27Z" fill="#F8D635"/>
<path d="M23 21C22.4477 21 22 20.5523 22 20V18C22 17.4477 22.4477 17 23 17C23.5523 17 24 17.4477 24 18V20C24 20.5523 23.5523 21 23 21Z" fill="#F8D635"/>
<path d="M23 29C22.4477 29 22 28.5523 22 28V26C22 25.4477 22.4477 25 23 25C23.5523 25 24 25.4477 24 26V28C24 28.5523 23.5523 29 23 29Z" fill="#F8D635"/>
<path fill-rule="evenodd" clip-rule="evenodd" d="M14 23C14 27.9706 18.0294 32 23 32C25.3869 32 27.6761 31.0518 29.364 29.364C31.0518 27.6761 32 25.3869 32 23C32 18.0294 27.9706 14 23 14C18.0294 14 14 18.0294 14 23ZM16 23C16 19.134 19.134 16 23 16C24.8565 16 26.637 16.7375 27.9497 18.0503C29.2625 19.363 30 21.1435 30 23C30 26.866 26.866 30 23 30C19.134 30 16 26.866 16 23Z" fill="#F8D635"/>
<path d="M11 23.9402H10.91C4.56661 23.3059 -0.173577 17.8223 0.116379 11.4539C0.406334 5.08553 5.62522 0.0554162 12 0.000166036C18.2157 -0.0323624 23.4123 4.71843 23.936 10.9122C23.9604 11.177 23.8783 11.4406 23.7079 11.6448C23.5376 11.8489 23.2929 11.9768 23.028 12.0002C22.4824 12.0346 22.0057 11.6353 21.944 11.0922C21.3896 5.82923 16.8308 1.90944 11.5442 2.15012C6.2576 2.39081 2.07384 6.70863 1.99996 12.0002C1.97306 17.1774 5.92919 21.5062 11.088 21.9442C11.6402 21.9679 12.0687 22.4349 12.045 22.9872C12.0212 23.5394 11.5542 23.9679 11.002 23.9442L11 23.9402Z" fill="#F8D635"/>
<path d="M18.2 13H12C11.4477 13 11 12.5523 11 12V5C11 4.44772 11.4477 4 12 4C12.5523 4 13 4.44772 13 5V11H18.2C18.7523 11 19.2 11.4477 19.2 12C19.2 12.5523 18.7523 13 18.2 13Z" fill="#F8D635"/>
</svg>
