<svg xmlns="http://www.w3.org/2000/svg" width="160" height="29" viewBox="0 0 160 29">
    <defs>
        <linearGradient id="prefix__a" x1="-3.466%" x2="106.319%" y1="73.015%" y2="25.031%">
            <stop offset="0%" stop-color="#04E762"/>
            <stop offset="100%" stop-color="#21F596"/>
        </linearGradient>
        <linearGradient id="prefix__b" x1="-3.466%" x2="106.319%" y1="72.639%" y2="25.439%">
            <stop offset="0%" stop-color="#FAAC18"/>
            <stop offset="100%" stop-color="#F8EE45"/>
        </linearGradient>
    </defs>
    <g fill="none" fill-rule="evenodd">
        <path fill="#FFF" fill-rule="nonzero" d="M41 14.1c0-1.59-.33-3.014-.989-4.272-.66-1.258-1.594-2.244-2.804-2.958-1.21-.713-2.6-1.07-4.166-1.07-1.135 0-2.2.207-3.194.62-.994.415-1.845.99-2.553 1.725-.708.735-1.267 1.628-1.678 2.68-.41 1.05-.616 2.186-.616 3.406 0 1.667.365 3.149 1.094 4.445.73 1.296 1.727 2.29 2.991 2.982 1.265.692 2.686 1.038 4.264 1.038 1.556 0 2.928-.28 4.117-.842 1.189-.56 2.15-1.31 2.886-2.247L37.53 16.96c-1.016 1.242-2.307 1.858-3.874 1.847-1.038-.011-1.921-.294-2.65-.85-.73-.556-1.225-1.318-1.484-2.288h11.364c.075-.272.113-.795.113-1.568zm-7.929-4.517c.9 0 1.64.245 2.223.737.582.491.984 1.17 1.206 2.037h-7c.243-.899.68-1.586 1.31-2.061.63-.476 1.383-.713 2.261-.713zm19.713 13.113H57.5l-5.586-8.65 5.49-8.246h-4.878l-3.01 4.832h-.08L46.458 5.8h-4.91l5.49 8.262-5.538 8.634h4.684l3.268-4.85h.08l3.252 4.85zm12.728 0c2.026 0 3.572-.469 4.638-1.406 1.067-.936 1.6-2.162 1.6-3.676 0-.403-.032-.768-.096-1.095-.198-1.057-.79-1.91-1.775-2.556l-.09-.058c-.6-.392-1.79-.92-3.57-1.585-.847-.327-1.46-.621-1.84-.883-.381-.261-.572-.555-.572-.882 0-.392.161-.694.483-.907.321-.212.686-.319 1.093-.319.622 0 1.268.145 1.937.433.67.29 1.305.722 1.906 1.3l2.09-3.203c-.911-.72-1.838-1.242-2.782-1.569-.943-.327-1.977-.49-3.103-.49-1.093 0-2.076.202-2.95.605-.874.403-1.565.977-2.074 1.723-.51.747-.764 1.605-.764 2.574 0 .512.06.986.177 1.422.118.435.292.822.523 1.16.23.337.487.642.771.915.284.272.625.52 1.021.743.397.224.785.417 1.166.58.38.164.812.327 1.294.49l.33.11c.598.202 1.06.373 1.383.511.38.164.677.34.892.532.214.19.321.41.321.661 0 .403-.176.73-.53.98-.354.251-.836.377-1.447.377-1.63 0-3.114-.638-4.454-1.912L59 20.294c1.79 1.601 3.96 2.402 6.512 2.402zM83.458 5.8c-2.04 0-3.657.718-4.852 2.154h-.064V6.077H74.25V29h4.292v-8.435h.064c1.142 1.403 2.717 2.105 4.724 2.105 1.1 0 2.121-.201 3.066-.604.945-.402 1.756-.965 2.434-1.689.678-.723 1.21-1.61 1.594-2.659.384-1.05.576-2.194.576-3.434 0-.98-.123-1.906-.368-2.782-.246-.875-.595-1.659-1.05-2.35-.453-.69-.99-1.288-1.609-1.794s-1.315-.892-2.09-1.158c-.773-.267-1.582-.4-2.425-.4zm-.293 12.86c-.777 0-1.481-.182-2.114-.55-.633-.366-1.133-.894-1.5-1.583-.367-.69-.551-1.472-.551-2.348 0-.646.104-1.253.311-1.822.208-.57.492-1.056.854-1.461s.8-.725 1.316-.96c.516-.236 1.078-.353 1.684-.353 1.17 0 2.144.421 2.92 1.264.777.842 1.165 1.953 1.165 3.332 0 1.324-.38 2.402-1.141 3.234-.76.832-1.742 1.248-2.944 1.248zm18.71 4.036c1.664 0 3.15-.352 4.458-1.054 1.308-.703 2.33-1.697 3.065-2.982.735-1.286 1.102-2.75 1.102-4.396 0-1.242-.213-2.388-.64-3.44-.427-1.05-1.02-1.944-1.776-2.68-.756-.735-1.67-1.31-2.74-1.723-1.07-.414-2.226-.621-3.469-.621-1.265 0-2.437.212-3.518.637-1.08.425-1.994 1.01-2.74 1.757-.746.746-1.327 1.642-1.743 2.688-.416 1.046-.624 2.173-.624 3.382 0 .97.132 1.885.397 2.745.265.86.651 1.637 1.16 2.329.507.691 1.11 1.288 1.807 1.789.697.501 1.494.888 2.391 1.16.897.272 1.854.409 2.87.409zm.133-4.035c-1.24 0-2.26-.435-3.059-1.305-.8-.87-1.199-1.946-1.199-3.226 0-1.313.394-2.4 1.183-3.259.788-.859 1.813-1.288 3.075-1.288 1.218 0 2.23.424 3.035 1.272.805.848 1.207 1.94 1.207 3.275 0 1.313-.408 2.397-1.224 3.25-.815.854-1.821 1.28-3.018 1.28zM122.166 5.8c-.944 0-1.878-.048-2.706.431-.827.479-1.543 1.163-2.148 2.053h-.048V5.8H113v16.895h4.264v-7.84c0-1.295.358-2.353 1.074-3.175.717-.823 1.566-2.005 3.372-2.005.329 0 .317-.034.742 0l.048-3.858c-.064-.011-.175-.017-.334-.017zm7.43 16.895c.985 0 1.789-.088 2.41-.262.621-.174 1.237-.43 1.848-.768l-1.109-3.498c-.728.381-1.403.572-2.025.572-.503 0-.865-.17-1.084-.507-.22-.338-.33-.866-.33-1.585V9.7h4.371V6.071h-4.37V2.113L125 2.587v14.665c0 1.788.41 3.142 1.23 4.062.819.921 1.94 1.382 3.366 1.382zm9.279-17.4c.717 0 1.334-.26 1.85-.778.517-.518.775-1.144.775-1.878 0-.724-.258-1.344-.775-1.863C140.21.26 139.592 0 138.875 0c-.727 0-1.347.26-1.858.777-.511.519-.767 1.14-.767 1.863 0 .486.116.93.348 1.336.232.405.55.726.957.963.405.238.846.357 1.32.357zM137 22.696h4V6.556h-4v16.14zm18.675-16.618v1.846h-.064c-1.205-1.416-2.792-2.124-4.76-2.124-1.066 0-2.069.212-3.01.637-.941.425-1.748 1.008-2.42 1.749-.673.74-1.203 1.64-1.59 2.696-.387 1.056-.581 2.195-.581 3.415 0 1.242.194 2.388.58 3.44.388 1.05.923 1.938 1.607 2.663.683.724 1.5 1.288 2.452 1.691s1.982.605 3.09.605c2.066 0 3.674-.752 4.825-2.255h.081v1.977H160V6.078h-4.325zM151.4 18.66c-1.22 0-2.218-.416-2.99-1.248-.773-.832-1.159-1.91-1.159-3.234 0-1.379.397-2.49 1.191-3.332.795-.843 1.786-1.264 2.975-1.264 1.177 0 2.153.437 2.925 1.313.773.875 1.159 1.97 1.159 3.283 0 1.324-.394 2.402-1.183 3.234-.789.832-1.761 1.248-2.918 1.248z"/>
        <path fill="#233247" d="M22.358 4.466c1.169-1.49.63-3.207-.72-4-1.35-.794-3.122-.646-4.351 1.012l-5.088 6.51c-.763.973-2.21.973-2.973 0l-2.78-3.553C4.71 2.408 2.225 3.42 1.624 4.247c-.944 1.3-.671 2.456.278 3.74l3.346 4.523c.994 1.268.994 3.073 0 4.34l-3.56 5.51c-1.26 1.75-.557 3.048.277 3.767 1.49 1.284 2.999.886 4.296 0l3.102-5.17c.694-.885 2.008-.885 2.701 0l3.68 4.934c1.016 1.294 3.115 1.477 4.378.437 1.262-1.04 1.21-2.91.195-4.203l-3.94-5.023c-1.11-1.414-1.11-3.43 0-4.844l5.982-7.792z"/>
        <path fill="url(#prefix__a)" d="M2.57 22.218l6.057-1.557c1.425-.367 2.88.48 3.266 1.9.38 1.395-.444 2.833-1.84 3.212l-.034.009-6.057 1.557c-1.425.367-2.88-.48-3.266-1.9-.38-1.395.444-2.833 1.84-3.212l.034-.009z"/>
        <path fill="url(#prefix__b)" d="M3.629 12.203l5.94-1.527c1.471-.379 2.98.466 3.429 1.918.421 1.365-.344 2.814-1.71 3.235-.04.013-.08.024-.119.034L5.23 17.39c-1.471.378-2.98-.466-3.429-1.918-.421-1.365.344-2.814 1.71-3.236.04-.012.079-.023.119-.033z"/>
        <path fill="#ED3163" d="M2.63 3.203l5.938-1.527c1.488-.383 3.02.436 3.53 1.885.457 1.296-.224 2.717-1.52 3.173-.068.024-.137.045-.207.063L4.43 8.324c-1.487.383-3.02-.436-3.53-1.885-.456-1.296.225-2.717 1.522-3.173.067-.024.136-.045.206-.063z"/>
    </g>
</svg>
