<svg width="17" height="14" viewBox="0 0 17 14" fill="none" xmlns="http://www.w3.org/2000/svg">
<path d="M6.53374 12.5804C6.51328 12.5238 6.50624 12.4756 6.51318 12.4367C6.52008 12.398 6.4963 12.3659 6.44177 12.3412C6.38724 12.3165 6.36003 12.2969 6.36003 12.2829C6.36003 12.2688 6.32095 12.2581 6.2426 12.2511C6.16429 12.244 6.12521 12.2404 6.12521 12.2404H5.99255H5.88027H2.9401C2.49092 12.2404 2.10635 12.0741 1.78643 11.7411C1.46658 11.4083 1.30668 11.0083 1.30668 10.541V3.06324C1.30668 2.59589 1.46655 2.19592 1.78643 1.8631C2.10635 1.53024 2.49092 1.36376 2.9401 1.36376H6.20692C6.29541 1.36376 6.365 1.34092 6.41617 1.29479C6.46712 1.24876 6.50109 1.17968 6.51818 1.08764C6.5352 0.995598 6.54546 0.912486 6.5489 0.838117C6.55226 0.763822 6.55061 0.669921 6.54375 0.556638C6.53699 0.443392 6.53359 0.372594 6.53359 0.344134C6.53359 0.252093 6.50123 0.17259 6.43662 0.105178C6.37193 0.0380634 6.29541 0.00439453 6.20695 0.00439453H2.9401C2.13027 0.00439453 1.43773 0.303582 0.862571 0.90192C0.28756 1.50026 0 2.2207 0 3.06335V10.541C0 11.3835 0.28756 12.1042 0.862571 12.7023C1.43773 13.3009 2.13027 13.6001 2.9401 13.6001H6.20706C6.29556 13.6001 6.36518 13.577 6.41631 13.5311C6.46726 13.485 6.50123 13.416 6.51833 13.3239C6.53535 13.2319 6.54561 13.1484 6.54904 13.0743C6.5524 13 6.55076 12.9063 6.54389 12.793C6.53706 12.6796 6.53374 12.6088 6.53374 12.5804Z" fill="#ED3163"/>
<path d="M15.8136 7.28011L10.26 13.0585C10.1308 13.1928 9.97758 13.2603 9.80062 13.2603C9.62366 13.2603 9.47047 13.1928 9.3411 13.0585C9.21177 12.9239 9.14716 12.7644 9.14716 12.5804V9.52134H4.57359C4.39652 9.52134 4.24345 9.45393 4.11411 9.31955C3.98478 9.18499 3.92017 9.02561 3.92017 8.84149V4.76269C3.92017 4.57861 3.98478 4.41923 4.11411 4.28474C4.24359 4.15043 4.39663 4.08284 4.57359 4.08284H9.14719V1.02381C9.14719 0.83984 9.2118 0.680312 9.34114 0.54586C9.47047 0.411297 9.62366 0.343922 9.80065 0.343922C9.97758 0.343922 10.1308 0.411297 10.26 0.54586L15.8136 6.32395C15.9429 6.45863 16.0076 6.61778 16.0076 6.80194C16.0076 6.98602 15.9429 7.14555 15.8136 7.28011Z" fill="#ED3163"/>
</svg>
