<svg width="21" height="31" viewBox="0 0 21 31" fill="none" xmlns="http://www.w3.org/2000/svg">
<path fill-rule="evenodd" clip-rule="evenodd" d="M1.90909 31H19.0909C20.1453 31 21 30.1326 21 29.0625V1.9375C21 0.867448 20.1453 0 19.0909 0H1.90909C0.854729 0 0 0.867448 0 1.9375V29.0625C0 30.1326 0.854729 31 1.90909 31ZM1.90909 29.0625V1.9375H19.0909V29.0625H1.90909Z" fill="#32D882"/>
<rect x="1" y="25" width="19" height="2" fill="#32D882"/>
<rect x="1" y="4" width="19" height="2" fill="#32D882"/>
<path d="M9 13H5C4.44772 13 4 12.5523 4 12V8C4 7.44772 4.44772 7 5 7H9C9.55228 7 10 7.44772 10 8V12C10 12.5523 9.55228 13 9 13Z" fill="#32D882"/>
<path d="M6 11H8V9H6V11Z" fill="#32D882"/>
<path d="M16 13H12C11.4477 13 11 12.5523 11 12V8C11 7.44772 11.4477 7 12 7H16C16.5523 7 17 7.44772 17 8V12C17 12.5523 16.5523 13 16 13Z" fill="#32D882"/>
<path d="M13 11H15V9H13V11Z" fill="#32D882"/>
<path d="M9 21H5C4.44772 21 4 20.5523 4 20V16C4 15.4477 4.44772 15 5 15H9C9.55228 15 10 15.4477 10 16V20C10 20.5523 9.55228 21 9 21Z" fill="#32D882"/>
<path d="M6 19H8V17H6V19Z" fill="#32D882"/>
</svg>
