<svg width="32" height="32" viewBox="0 0 32 32" fill="none" xmlns="http://www.w3.org/2000/svg">
<path fill-rule="evenodd" clip-rule="evenodd" d="M6 7C7.65685 7 9 5.65685 9 4C9 2.34315 7.65685 1 6 1C4.34315 1 3 2.34315 3 4C3 5.65685 4.34315 7 6 7Z" stroke="#32D882" stroke-width="2" stroke-linecap="round" stroke-linejoin="round"/>
<path fill-rule="evenodd" clip-rule="evenodd" d="M3 21L3.91 30.1C3.96154 30.6129 4.39452 31.0026 4.91 31H7.11C7.62548 31.0026 8.05846 30.6129 8.11 30.1L9 21H11L10.09 11.9C10.0385 11.3871 9.60548 10.9974 9.09 11H8L6 13L4 11H2.904C2.38852 10.9974 1.95554 11.3871 1.904 11.9L1 21H3Z" stroke="#32D882" stroke-width="2" stroke-linecap="round" stroke-linejoin="round"/>
<path d="M13.7 10.06C13.92 9.8 14.14 9.54 14.38 9.3L12.76 6.48L16.24 4.48L17.86 7.3C19.2586 6.89996 20.7414 6.89996 22.14 7.3L23.76 4.48L27.24 6.48L25.62 9.3C26.6524 10.3157 27.3858 11.5957 27.74 13H31V17H27.74C27.3858 18.4043 26.6524 19.6842 25.62 20.7L27.24 23.52L23.76 25.52L22.14 22.7C20.7414 23.1 19.2586 23.1 17.86 22.7L16.24 25.52L13.62 24.02" stroke="#32D882" stroke-width="2" stroke-linecap="round" stroke-linejoin="round"/>
<path fill-rule="evenodd" clip-rule="evenodd" d="M20 18C21.6569 18 23 16.6569 23 15C23 13.3431 21.6569 12 20 12C18.3431 12 17 13.3431 17 15C17 16.6569 18.3431 18 20 18Z" stroke="#32D882" stroke-width="2" stroke-linecap="round" stroke-linejoin="round"/>
</svg>
