<svg width="32" height="32" viewBox="0 0 32 32" fill="none" xmlns="http://www.w3.org/2000/svg">
<path fill-rule="evenodd" clip-rule="evenodd" d="M6 7C7.65685 7 9 5.65685 9 4C9 2.34315 7.65685 1 6 1C4.34315 1 3 2.34315 3 4C3 5.65685 4.34315 7 6 7Z" stroke="#32D882" stroke-width="2" stroke-linecap="round" stroke-linejoin="round"/>
<path fill-rule="evenodd" clip-rule="evenodd" d="M3 21L3.91 30.1C3.96154 30.6129 4.39452 31.0026 4.91 31H7.11C7.62548 31.0026 8.05846 30.6129 8.11 30.1L9 21H11L10.09 11.9C10.0385 11.3871 9.60548 10.9974 9.09 11H2.89C2.37452 10.9974 1.94154 11.3871 1.89 11.9L1 21H3Z" stroke="#32D882" stroke-width="2" stroke-linecap="round" stroke-linejoin="round"/>
<path fill-rule="evenodd" clip-rule="evenodd" d="M28 19C29.6569 19 31 17.6569 31 16C31 14.3431 29.6569 13 28 13C26.3431 13 25 14.3431 25 16C25 17.6569 26.3431 19 28 19Z" stroke="#32D882" stroke-width="2" stroke-linecap="round" stroke-linejoin="round"/>
<path fill-rule="evenodd" clip-rule="evenodd" d="M28 7C29.6569 7 31 5.65685 31 4C31 2.34315 29.6569 1 28 1C26.3431 1 25 2.34315 25 4C25 5.65685 26.3431 7 28 7Z" stroke="#32D882" stroke-width="2" stroke-linecap="round" stroke-linejoin="round"/>
<path fill-rule="evenodd" clip-rule="evenodd" d="M28 31C29.6569 31 31 29.6569 31 28C31 26.3431 29.6569 25 28 25C26.3431 25 25 26.3431 25 28C25 29.6569 26.3431 31 28 31Z" stroke="#32D882" stroke-width="2" stroke-linecap="round" stroke-linejoin="round"/>
<path d="M25 4H19V28H25" stroke="#32D882" stroke-width="2" stroke-linecap="round" stroke-linejoin="round"/>
<path d="M15 16H25" stroke="#32D882" stroke-width="2" stroke-linecap="round" stroke-linejoin="round"/>
</svg>
